G04 DipTrace 3.3.1.3*
G04 BottomMask.gbr*
%MOIN*%
G04 #@! TF.FileFunction,Soldermask,Bot*
G04 #@! TF.Part,Single*
%ADD30C,0.066935*%
%ADD32R,0.066935X0.066935*%
%ADD34C,0.066935*%
%ADD36R,0.070872X0.070872*%
%ADD38C,0.070872*%
%FSLAX26Y26*%
G04*
G70*
G90*
G75*
G01*
G04 BotMask*
%LPD*%
D38*
X1818700Y2068700D3*
D36*
Y2268700D3*
D38*
Y843700D3*
D36*
Y643700D3*
D34*
X1618700Y1831200D3*
D32*
X1718700D3*
D34*
X1618700Y1581200D3*
D32*
X1718700D3*
D34*
X1618700Y1331200D3*
D32*
X1718700D3*
D34*
X1618700Y1081200D3*
D32*
X1718700D3*
X2868700Y1156200D3*
D34*
X2768700D3*
X2668700D3*
X2568700D3*
X2468700D3*
Y1756200D3*
X2368700Y1156200D3*
X2268700D3*
X2168700D3*
X2068700D3*
Y1756200D3*
X2168700D3*
X2268700D3*
X2368700D3*
X2568700D3*
X2668700D3*
X2768700D3*
X2868700D3*
D32*
X1418700D3*
D34*
X1318700D3*
X1218700D3*
X1118700D3*
X1018700D3*
X918700D3*
X818700D3*
X718700D3*
X618700D3*
X518700D3*
D32*
X1418700Y1156200D3*
D34*
X1318700D3*
X1218700D3*
X1118700D3*
X1018700D3*
X918700D3*
X818700D3*
X718700D3*
X618700D3*
X518700D3*
D32*
X2918700Y2018700D3*
D34*
X3018700D3*
X3118700D3*
X3218700D3*
X3318700D3*
X3418700D3*
X3518700D3*
X3618700D3*
Y2318700D3*
X3518700D3*
X3418700D3*
X3318700D3*
X3218700D3*
X3118700D3*
X3018700D3*
X2918700D3*
D32*
X3618700Y893700D3*
D34*
X3518700D3*
X3418700D3*
X3318700D3*
X3218700D3*
X3118700D3*
X3018700D3*
X2918700D3*
Y593700D3*
X3018700D3*
X3118700D3*
X3218700D3*
X3318700D3*
X3418700D3*
X3518700D3*
X3618700D3*
D32*
X1843700Y1656200D3*
D30*
Y1556200D3*
Y1456200D3*
Y1356200D3*
Y1256200D3*
D32*
X2018700Y2018700D3*
D34*
X2118700D3*
X2218700D3*
X2318700D3*
X2418700D3*
X2518700D3*
X2618700D3*
X2718700D3*
Y2318700D3*
X2618700D3*
X2518700D3*
X2418700D3*
X2318700D3*
X2218700D3*
X2118700D3*
X2018700D3*
D32*
X2718700Y893700D3*
D34*
X2618700D3*
X2518700D3*
X2418700D3*
X2318700D3*
X2218700D3*
X2118700D3*
X2018700D3*
Y593700D3*
X2118700D3*
X2218700D3*
X2318700D3*
X2418700D3*
X2518700D3*
X2618700D3*
X2718700D3*
D32*
X668700Y1306200D3*
D34*
X768700D3*
X868700D3*
X968700D3*
X1068700D3*
X1168700D3*
X1268700D3*
Y1606200D3*
X1168700D3*
X1068700D3*
X968700D3*
X868700D3*
X768700D3*
X668700D3*
M02*
