G04 DipTrace 3.3.1.3*
G04 BottomSilk.gbr*
%MOIN*%
G04 #@! TF.FileFunction,Legend,Bot*
G04 #@! TF.Part,Single*
%ADD10C,0.009843*%
%ADD21C,0.049987*%
%ADD40C,0.00772*%
%ADD41C,0.015439*%
%ADD42C,0.012351*%
%ADD43C,0.055581*%
%FSLAX26Y26*%
G04*
G70*
G90*
G75*
G01*
G04 BotSilk*
%LPD*%
X1718707Y1868700D2*
D10*
Y1866200D1*
X1616928Y1796200D2*
G03X1718707Y1793700I51780J34999D01*
G01*
Y1868700D2*
G03X1616928Y1866200I-49999J-37499D01*
G01*
X1718707Y1796200D2*
Y1793700D1*
Y1618700D2*
Y1616200D1*
X1616928Y1546200D2*
G03X1718707Y1543700I51780J34999D01*
G01*
Y1618700D2*
G03X1616928Y1616200I-49999J-37499D01*
G01*
X1718707Y1546200D2*
Y1543700D1*
Y1368700D2*
Y1366200D1*
X1616928Y1296200D2*
G03X1718707Y1293700I51780J34999D01*
G01*
Y1368700D2*
G03X1616928Y1366200I-49999J-37499D01*
G01*
X1718707Y1296200D2*
Y1293700D1*
Y1118700D2*
Y1116200D1*
X1616928Y1046200D2*
G03X1718707Y1043700I51780J34999D01*
G01*
Y1118700D2*
G03X1616928Y1116200I-49999J-37499D01*
G01*
X1718707Y1046200D2*
Y1043700D1*
D21*
X2043710Y1231218D3*
X2543681D3*
X2960700Y1793195D2*
D10*
X1976700D1*
Y1119180D1*
X2960700D1*
Y1793195D1*
X1699163Y1966923D2*
D40*
Y1916683D1*
X1682416D1*
X1675231Y1919115D1*
X1670423Y1923868D1*
X1668046Y1928677D1*
X1665670Y1935806D1*
Y1947800D1*
X1668046Y1954985D1*
X1670423Y1959738D1*
X1675231Y1964546D1*
X1682416Y1966923D1*
X1699163D1*
X1650230Y1957306D2*
X1645422Y1959738D1*
X1638237Y1966868D1*
Y1916683D1*
X1709913Y1716923D2*
Y1666683D1*
X1693166D1*
X1685981Y1669115D1*
X1681173Y1673868D1*
X1678796Y1678677D1*
X1676420Y1685806D1*
Y1697800D1*
X1678796Y1704985D1*
X1681173Y1709738D1*
X1685981Y1714546D1*
X1693166Y1716923D1*
X1709913D1*
X1658549Y1704930D2*
Y1707306D1*
X1656172Y1712115D1*
X1653795Y1714491D1*
X1648987Y1716868D1*
X1639425D1*
X1634672Y1714491D1*
X1632295Y1712115D1*
X1629864Y1707306D1*
Y1702553D1*
X1632295Y1697745D1*
X1637049Y1690615D1*
X1660980Y1666683D1*
X1627487D1*
X1709913Y1466923D2*
Y1416683D1*
X1693166D1*
X1685981Y1419115D1*
X1681173Y1423868D1*
X1678796Y1428677D1*
X1676420Y1435806D1*
Y1447800D1*
X1678796Y1454985D1*
X1681173Y1459738D1*
X1685981Y1464546D1*
X1693166Y1466923D1*
X1709913D1*
X1656172Y1466868D2*
X1629919D1*
X1644234Y1447745D1*
X1637049D1*
X1632295Y1445368D1*
X1629919Y1442991D1*
X1627487Y1435806D1*
Y1431053D1*
X1629919Y1423868D1*
X1634672Y1419060D1*
X1641857Y1416683D1*
X1649042D1*
X1656172Y1419060D1*
X1658549Y1421492D1*
X1660980Y1426245D1*
X1711101Y1216923D2*
Y1166683D1*
X1694355D1*
X1687170Y1169115D1*
X1682361Y1173868D1*
X1679985Y1178677D1*
X1677608Y1185806D1*
Y1197800D1*
X1679985Y1204985D1*
X1682361Y1209738D1*
X1687170Y1214546D1*
X1694355Y1216923D1*
X1711101D1*
X1638237Y1166683D2*
Y1216868D1*
X1662169Y1183430D1*
X1626299D1*
X2923629Y1866418D2*
Y1816178D1*
X2906883D1*
X2899698Y1818610D1*
X2894889Y1823363D1*
X2892513Y1828172D1*
X2890136Y1835302D1*
Y1847295D1*
X2892513Y1854480D1*
X2894889Y1859233D1*
X2899698Y1864042D1*
X2906883Y1866418D1*
X2923629D1*
X2841203Y1859233D2*
X2845957Y1864042D1*
X2853142Y1866418D1*
X2862703D1*
X2869888Y1864042D1*
X2874697Y1859233D1*
Y1854480D1*
X2872265Y1849672D1*
X2869888Y1847295D1*
X2865135Y1844919D1*
X2850765Y1840110D1*
X2845957Y1837733D1*
X2843580Y1835302D1*
X2841203Y1830548D1*
Y1823363D1*
X2845957Y1818610D1*
X2853142Y1816178D1*
X2862703D1*
X2869888Y1818610D1*
X2874697Y1823363D1*
X2825764Y1856801D2*
X2820956Y1859233D1*
X2813771Y1866363D1*
Y1816178D1*
X1463920Y1034798D2*
D41*
Y1135278D1*
X1502166Y1034798D1*
X1540413Y1135278D1*
Y1034798D1*
X1539242Y1880537D2*
Y1780057D1*
X1472256Y1880537D2*
Y1780057D1*
X1539242Y1832674D2*
X1472256D1*
X1550046Y1385278D2*
X1526059Y1284798D1*
X1502183Y1385278D1*
X1478307Y1284798D1*
X1454320Y1385278D1*
X1533317Y1637648D2*
Y1537168D1*
X1499824D1*
X1485454Y1542031D1*
X1475837Y1551538D1*
X1471084Y1561155D1*
X1466330Y1575414D1*
Y1599401D1*
X1471084Y1613771D1*
X1475837Y1623278D1*
X1485454Y1632895D1*
X1499824Y1637648D1*
X1533317D1*
X2489880Y2203641D2*
D42*
X2493683Y2211246D1*
X2501376Y2218939D1*
X2508981Y2222742D1*
X2524280D1*
X2531973Y2218939D1*
X2539579Y2211246D1*
X2543470Y2203641D1*
X2547272Y2192145D1*
Y2172955D1*
X2543470Y2161548D1*
X2539579Y2153854D1*
X2531973Y2146249D1*
X2524280Y2142358D1*
X2508981D1*
X2501376Y2146249D1*
X2493683Y2153854D1*
X2489880Y2161548D1*
X2446076Y2195947D2*
X2453681Y2192145D1*
X2461375Y2184451D1*
X2465177Y2172955D1*
Y2165350D1*
X2461375Y2153854D1*
X2453681Y2146249D1*
X2446076Y2142358D1*
X2434580D1*
X2426887Y2146249D1*
X2419282Y2153854D1*
X2415391Y2165350D1*
Y2172955D1*
X2419282Y2184451D1*
X2426887Y2192145D1*
X2434580Y2195947D1*
X2446076D1*
X2390688D2*
Y2157657D1*
X2386885Y2146249D1*
X2379192Y2142358D1*
X2367696D1*
X2360091Y2146249D1*
X2348595Y2157657D1*
Y2195947D2*
Y2142358D1*
X2323892Y2195947D2*
Y2142358D1*
Y2180649D2*
X2312396Y2192145D1*
X2304702Y2195947D1*
X2293294D1*
X2285601Y2192145D1*
X2281798Y2180649D1*
Y2142358D1*
X2245600Y2222742D2*
Y2157657D1*
X2241797Y2146249D1*
X2234104Y2142358D1*
X2226498D1*
X2257096Y2195947D2*
X2230301D1*
X2201796Y2222742D2*
X2197993Y2218939D1*
X2194102Y2222742D1*
X2197993Y2226633D1*
X2201796Y2222742D1*
X2197993Y2195947D2*
Y2142358D1*
X2169399Y2195947D2*
Y2142358D1*
Y2180649D2*
X2157903Y2192145D1*
X2150210Y2195947D1*
X2138802D1*
X2131109Y2192145D1*
X2127306Y2180649D1*
Y2142358D1*
X2056707Y2192145D2*
Y2130862D1*
X2060510Y2119454D1*
X2064313Y2115563D1*
X2072006Y2111761D1*
X2083502D1*
X2091107Y2115563D1*
X2056707Y2180649D2*
X2064313Y2188254D1*
X2072006Y2192145D1*
X2083502D1*
X2091107Y2188254D1*
X2098801Y2180649D1*
X2102603Y2169153D1*
Y2161459D1*
X2098801Y2150051D1*
X2091107Y2142358D1*
X2083502Y2138555D1*
X2072006D1*
X2064313Y2142358D1*
X2056707Y2150051D1*
X1896851Y2203641D2*
X1900654Y2211246D1*
X1908347Y2218939D1*
X1915952Y2222742D1*
X1931251D1*
X1938944Y2218939D1*
X1946550Y2211246D1*
X1950441Y2203641D1*
X1954243Y2192145D1*
Y2172955D1*
X1950441Y2161548D1*
X1946550Y2153854D1*
X1938944Y2146249D1*
X1931251Y2142358D1*
X1915952D1*
X1908347Y2146249D1*
X1900654Y2153854D1*
X1896851Y2161548D1*
X1872148Y2222742D2*
Y2142358D1*
X1828344Y2195947D2*
X1835950Y2192145D1*
X1843643Y2184451D1*
X1847446Y2172955D1*
Y2165350D1*
X1843643Y2153854D1*
X1835950Y2146249D1*
X1828344Y2142358D1*
X1816848D1*
X1809155Y2146249D1*
X1801550Y2153854D1*
X1797659Y2165350D1*
Y2172955D1*
X1801550Y2184451D1*
X1809155Y2192145D1*
X1816848Y2195947D1*
X1828344D1*
X1726972Y2184451D2*
X1734665Y2192145D1*
X1742359Y2195947D1*
X1753766D1*
X1761460Y2192145D1*
X1769065Y2184451D1*
X1772956Y2172955D1*
Y2165350D1*
X1769065Y2153854D1*
X1761460Y2146249D1*
X1753766Y2142358D1*
X1742359D1*
X1734665Y2146249D1*
X1726972Y2153854D1*
X1702269Y2222742D2*
Y2142358D1*
X1663978Y2195947D2*
X1702269Y2157657D1*
X1686970Y2172955D2*
X1660176Y2142358D1*
X2754905Y1633703D2*
D43*
X2806239Y1616592D1*
X2823748Y1582369D1*
Y1547748D1*
X2806239Y1513525D1*
X2772016Y1496016D1*
X2703172Y1478904D1*
X2651440Y1461793D1*
X2617217Y1427172D1*
X2600106Y1392949D1*
Y1341217D1*
X2617217Y1306994D1*
X2634329Y1289485D1*
X2686061Y1272373D1*
X2754905D1*
X2806239Y1289485D1*
X2823748Y1306994D1*
X2840860Y1341217D1*
Y1392949D1*
X2823748Y1427172D1*
X2789128Y1461793D1*
X2737793Y1478904D1*
X2668950Y1496016D1*
X2634329Y1513525D1*
X2617217Y1547748D1*
Y1582369D1*
X2634329Y1616592D1*
X2686061Y1633703D1*
X2754905D1*
X2254934D2*
X2306269Y1616592D1*
X2323778Y1582369D1*
Y1547748D1*
X2306269Y1513525D1*
X2272046Y1496016D1*
X2203202Y1478904D1*
X2151470Y1461793D1*
X2117247Y1427172D1*
X2100135Y1392949D1*
Y1341217D1*
X2117247Y1306994D1*
X2134358Y1289485D1*
X2186091Y1272373D1*
X2254934D1*
X2306269Y1289485D1*
X2323778Y1306994D1*
X2340890Y1341217D1*
Y1392949D1*
X2323778Y1427172D1*
X2289157Y1461793D1*
X2237823Y1478904D1*
X2168979Y1496016D1*
X2134358Y1513525D1*
X2117247Y1547748D1*
Y1582369D1*
X2134358Y1616592D1*
X2186091Y1633703D1*
X2254934D1*
M02*
