G04 DipTrace 3.3.1.3*
G04 Bottom.gbr*
%MOIN*%
G04 #@! TF.FileFunction,Copper,L2,Bot*
G04 #@! TF.Part,Single*
G04 #@! TA.AperFunction,CopperBalancing*
%ADD13C,0.025*%
G04 #@! TA.AperFunction,Conductor*
%ADD14C,0.012992*%
G04 #@! TA.AperFunction,CopperBalancing*
%ADD15C,0.013*%
G04 #@! TA.AperFunction,ComponentPad*
%ADD17C,0.062992*%
%ADD18R,0.062992X0.062992*%
%ADD19C,0.059055*%
%ADD20R,0.059055X0.059055*%
%ADD22C,0.059055*%
G04 #@! TA.AperFunction,ViaPad*
%ADD23C,0.04*%
%FSLAX26Y26*%
G04*
G70*
G90*
G75*
G01*
G04 Bottom*
%LPD*%
X1818700Y2268700D2*
D13*
X756692D1*
X718700Y2230708D1*
Y1756200D1*
Y1699212D1*
X680708Y1661220D1*
X668700D1*
Y1606200D1*
X2218700Y2318700D2*
D14*
X2091731Y2191731D1*
X994684D1*
X968700Y2165747D1*
Y1606200D1*
X1018700Y1156200D2*
Y1456200D1*
X1168700Y1606200D1*
X918700Y1156200D2*
Y1556200D1*
X868700Y1606200D1*
X1118700Y1156200D2*
X1068700Y1206200D1*
Y1306200D1*
X1718700Y1831200D2*
X1767716Y1782184D1*
Y1632184D1*
X1843700Y1556200D1*
X1718700Y1581200D2*
Y1482184D1*
X1744684Y1456200D1*
X1843700D1*
X1718700Y1331200D2*
X1767716D1*
X1792716Y1356200D1*
X1843700D1*
X1718700Y1081200D2*
X1843700Y1206200D1*
Y1256200D1*
X2718700Y2318700D2*
X2467716Y2067716D1*
Y1994684D1*
X2417716Y1944684D1*
Y967716D1*
X2467716Y917716D1*
Y644684D1*
X2518700Y593700D1*
X2918700Y2318700D2*
X2869684Y2367716D1*
X2167716D1*
X2118700Y2318700D1*
X2167716Y2067716D2*
X2148228D1*
X2118700Y2038188D1*
Y2018700D1*
X3518700Y2318700D2*
X3319684Y2119684D1*
X2619684D1*
X2518700Y2018700D1*
X3618700Y2318700D2*
X3393700Y2093700D1*
X2693700D1*
X2618700Y2018700D1*
X3618700Y593700D2*
X3564893Y539893D1*
X2993700D1*
X2967716Y565877D1*
Y642715D1*
X2941731Y668700D1*
X2693700D1*
X2618700Y593700D1*
X3518700D2*
X3338035Y774365D1*
X2838035D1*
X2718700Y893700D1*
X3418700Y593700D2*
X3317716Y694684D1*
X2817716D1*
X2618700Y893700D1*
X2918700Y593700D2*
X2864893Y539893D1*
X2193700D1*
X2167716Y565877D1*
Y672302D1*
X2118700Y721318D1*
Y893700D1*
X3218700D2*
X3143700Y968700D1*
X2494684D1*
X2468700Y994684D1*
Y1156200D1*
X2517716Y1805216D2*
Y1072637D1*
X2543700Y1046653D1*
X3241732D1*
X3267716Y1020669D1*
Y852319D1*
X3241731Y826334D1*
X3186066D1*
X3118700Y893700D1*
X3618700Y2018700D2*
Y1133164D1*
X3592716Y1107180D1*
X2617720D1*
X2568700Y1156200D1*
X2868700Y1756200D2*
X3241732D1*
X3267716Y1782184D1*
Y2041732D1*
X3293700Y2067716D1*
X3369684D1*
X3418700Y2018700D1*
X2868700Y1156200D2*
X3318700Y1606200D1*
Y2018700D1*
X2768700Y1156200D2*
X2817716Y1205216D1*
Y1779232D1*
X2843700Y1805216D1*
X3005216D1*
X3218700Y2018700D1*
X2668700Y1156200D2*
X2717716Y1205216D1*
Y1865747D1*
X2743700Y1891731D1*
X2991731D1*
X3118700Y2018700D1*
X2568700Y1756200D2*
Y1917716D1*
X2594684Y1943700D1*
X2943700D1*
X3018700Y2018700D1*
X2418700Y593700D2*
X2367716Y644684D1*
Y1082180D1*
X2317716Y1132180D1*
Y1858511D1*
X2269684Y1906543D1*
X1294685D1*
X1268700Y1880558D1*
Y1606200D1*
X2269684Y1906543D2*
Y2269684D1*
X2318700Y2318700D1*
X868700Y1306200D2*
Y1018822D1*
X894684Y992838D1*
X1767716D1*
X2141732D1*
X2167716Y966854D1*
Y800527D1*
X2218700Y749543D1*
Y593700D1*
X1168700Y1306200D2*
X1267716Y1405216D1*
X2015669D1*
X2367716Y1868452D2*
Y2267716D1*
X2418700Y2318700D1*
X2015669Y1405216D2*
Y1044806D1*
X2041653Y1018822D1*
X2241732D1*
X2267716Y992838D1*
Y644684D1*
X2318700Y593700D1*
D23*
X2167716Y2067716D3*
X2517716Y1805216D3*
X1767716Y992838D3*
X2367716Y1868452D3*
X2015669Y1405216D3*
X1368700Y2093700D3*
X2468700Y1893700D3*
X2518700D3*
X2468700Y1843700D3*
X1368700Y2043700D3*
X461200Y2455331D2*
D13*
X3696220D1*
X443976Y2430462D2*
X3713444D1*
X436584Y2405594D2*
X3720800D1*
X434718Y2380725D2*
X2131561D1*
X2905811D2*
X3722702D1*
X434718Y2355856D2*
X1974281D1*
X2063106D2*
X2074290D1*
X2963118D2*
X2974288D1*
X3063127D2*
X3074258D1*
X3163136D2*
X3174241D1*
X3263110D2*
X3274293D1*
X3363119D2*
X3374267D1*
X3463128D2*
X3474276D1*
X3563137D2*
X3574285D1*
X3663111D2*
X3722702D1*
X434718Y2330987D2*
X1961542D1*
X2775838D2*
X2857247D1*
X3675849D2*
X3722702D1*
X434718Y2306119D2*
X743238D1*
X1879200D2*
X1961614D1*
X2775802D2*
X2861625D1*
X3675778D2*
X3722702D1*
X434718Y2281250D2*
X711588D1*
X1879200D2*
X1974532D1*
X2062855D2*
X2074541D1*
X2462856D2*
X2474542D1*
X2562865D2*
X2574552D1*
X2762848D2*
X2874543D1*
X2962867D2*
X2974553D1*
X3062876D2*
X3074515D1*
X3162849D2*
X3174535D1*
X3262858D2*
X3274544D1*
X3362868D2*
X3374554D1*
X3662859D2*
X3722702D1*
X434718Y2256381D2*
X686864D1*
X1879200D2*
X2107232D1*
X2205531D2*
X2234190D1*
X2305540D2*
X2332226D1*
X2405549D2*
X2607242D1*
X2705541D2*
X3407244D1*
X3605516D2*
X3722702D1*
X434718Y2231512D2*
X677211D1*
X1879200D2*
X2082364D1*
X2180663D2*
X2234190D1*
X2305181D2*
X2332226D1*
X2403217D2*
X2582374D1*
X2680673D2*
X3382376D1*
X3580649D2*
X3722702D1*
X434718Y2206644D2*
X677211D1*
X760188D2*
X960445D1*
X2155795D2*
X2234190D1*
X2305181D2*
X2332226D1*
X2403217D2*
X2557507D1*
X2655806D2*
X3357509D1*
X3555781D2*
X3722702D1*
X434718Y2181775D2*
X677211D1*
X760188D2*
X937372D1*
X2130928D2*
X2234190D1*
X2305181D2*
X2332226D1*
X2403217D2*
X2532639D1*
X2630938D2*
X3332605D1*
X3530913D2*
X3722702D1*
X434718Y2156906D2*
X677211D1*
X760188D2*
X933209D1*
X1009008D2*
X2234190D1*
X2305181D2*
X2332226D1*
X2403217D2*
X2507771D1*
X2606070D2*
X3307737D1*
X3506045D2*
X3722702D1*
X434718Y2132037D2*
X677211D1*
X760188D2*
X933209D1*
X1004200D2*
X2234190D1*
X2305181D2*
X2332226D1*
X2403217D2*
X2482868D1*
X3481178D2*
X3722702D1*
X434718Y2107169D2*
X677211D1*
X760188D2*
X933209D1*
X1004200D2*
X1772791D1*
X1864595D2*
X2140604D1*
X2194801D2*
X2234190D1*
X2305181D2*
X2332226D1*
X2403217D2*
X2458000D1*
X3456310D2*
X3722702D1*
X434718Y2082300D2*
X677211D1*
X760188D2*
X933209D1*
X1004200D2*
X1759837D1*
X1877585D2*
X2113655D1*
X2214358D2*
X2234190D1*
X2305181D2*
X2332226D1*
X2403217D2*
X2435644D1*
X3431442D2*
X3722702D1*
X434718Y2057431D2*
X677211D1*
X760188D2*
X933209D1*
X1004200D2*
X1759335D1*
X1878088D2*
X1960178D1*
X2761664D2*
X2860190D1*
X3461657D2*
X3475711D1*
X3561666D2*
X3575720D1*
X3661675D2*
X3722702D1*
X434718Y2032562D2*
X677211D1*
X760188D2*
X933209D1*
X1004200D2*
X1770854D1*
X1866533D2*
X1960178D1*
X2775479D2*
X2860190D1*
X3675491D2*
X3722702D1*
X434718Y2007693D2*
X677211D1*
X760188D2*
X933209D1*
X1004200D2*
X1960178D1*
X2776125D2*
X2860190D1*
X3676136D2*
X3722702D1*
X434718Y1982825D2*
X677211D1*
X760188D2*
X933209D1*
X1004200D2*
X1960178D1*
X2164228D2*
X2173153D1*
X2564229D2*
X2573188D1*
X2764212D2*
X2860190D1*
X3364231D2*
X3373190D1*
X3464240D2*
X3473163D1*
X3564214D2*
X3573173D1*
X3664223D2*
X3722702D1*
X434718Y1957956D2*
X677211D1*
X760188D2*
X933209D1*
X1004200D2*
X2234190D1*
X2305181D2*
X2332226D1*
X2480152D2*
X2559803D1*
X3207094D2*
X3232237D1*
X3354184D2*
X3583220D1*
X3654175D2*
X3722702D1*
X434718Y1933087D2*
X677211D1*
X760188D2*
X933209D1*
X1004200D2*
X1272602D1*
X2305181D2*
X2332226D1*
X2455285D2*
X2537017D1*
X3182227D2*
X3232237D1*
X3354184D2*
X3583220D1*
X3654175D2*
X3722702D1*
X434718Y1908218D2*
X677211D1*
X760188D2*
X933209D1*
X1004200D2*
X1247196D1*
X2317166D2*
X2332226D1*
X2453203D2*
X2533213D1*
X2608367D2*
X2711019D1*
X3157359D2*
X3232237D1*
X3354184D2*
X3583220D1*
X3654175D2*
X3722702D1*
X434718Y1883350D2*
X677211D1*
X760188D2*
X933209D1*
X1004200D2*
X1233344D1*
X2453203D2*
X2533213D1*
X2604204D2*
X2687300D1*
X3132491D2*
X3232237D1*
X3354184D2*
X3583220D1*
X3654175D2*
X3722702D1*
X434718Y1858481D2*
X677211D1*
X760188D2*
X933209D1*
X1004200D2*
X1233201D1*
X1304192D2*
X1567283D1*
X1777217D2*
X2268603D1*
X2453203D2*
X2533213D1*
X2604204D2*
X2682240D1*
X2759618D2*
X3009324D1*
X3107623D2*
X3232237D1*
X3354184D2*
X3583220D1*
X3654175D2*
X3722702D1*
X434718Y1833612D2*
X677211D1*
X760188D2*
X933209D1*
X1004200D2*
X1233201D1*
X1304192D2*
X1560249D1*
X1777217D2*
X2282239D1*
X2453203D2*
X2478418D1*
X2604204D2*
X2682240D1*
X2753195D2*
X2824413D1*
X3082756D2*
X3232237D1*
X3354184D2*
X3583220D1*
X3654175D2*
X3722702D1*
X434718Y1808743D2*
X472994D1*
X564403D2*
X596759D1*
X640621D2*
X677211D1*
X760188D2*
X772986D1*
X864395D2*
X896787D1*
X1040622D2*
X1096769D1*
X1140632D2*
X1196778D1*
X1489211D2*
X1564878D1*
X1790315D2*
X2046767D1*
X2090630D2*
X2146776D1*
X2190639D2*
X2246785D1*
X2604204D2*
X2646787D1*
X3057888D2*
X3232237D1*
X3354184D2*
X3583220D1*
X3654175D2*
X3722702D1*
X434718Y1783875D2*
X454047D1*
X1489211D2*
X1586229D1*
X1651192D2*
X1660190D1*
X1803161D2*
X2017486D1*
X3354184D2*
X3583220D1*
X3654175D2*
X3722702D1*
X434718Y1759006D2*
X448234D1*
X1489211D2*
X1732242D1*
X1803197D2*
X2010237D1*
X3354184D2*
X3583220D1*
X3654175D2*
X3722702D1*
X434718Y1734137D2*
X451858D1*
X1489211D2*
X1732242D1*
X1803197D2*
X2014722D1*
X3268815D2*
X3283228D1*
X3354184D2*
X3583220D1*
X3654175D2*
X3722702D1*
X434718Y1709268D2*
X466966D1*
X570432D2*
X585599D1*
X651781D2*
X671111D1*
X870460D2*
X885627D1*
X1051782D2*
X1085609D1*
X1151792D2*
X1185618D1*
X1489211D2*
X1732242D1*
X1902238D2*
X2035607D1*
X2101790D2*
X2135616D1*
X2201799D2*
X2235626D1*
X2601800D2*
X2635627D1*
X2901792D2*
X3283228D1*
X3354184D2*
X3583220D1*
X3654175D2*
X3722702D1*
X434718Y1684399D2*
X634832D1*
X757281D2*
X933209D1*
X1004200D2*
X1233201D1*
X1304192D2*
X1732242D1*
X1902238D2*
X2282239D1*
X2353194D2*
X2382212D1*
X2453203D2*
X2482222D1*
X2553213D2*
X2682240D1*
X2753195D2*
X2782213D1*
X2853204D2*
X3283228D1*
X3354184D2*
X3583220D1*
X3654175D2*
X3722702D1*
X434718Y1659531D2*
X627225D1*
X736647D2*
X749051D1*
X788357D2*
X849061D1*
X888330D2*
X933209D1*
X1004200D2*
X1049043D1*
X1088348D2*
X1149052D1*
X1188358D2*
X1233201D1*
X1304192D2*
X1732242D1*
X1902238D2*
X2282239D1*
X2353194D2*
X2382212D1*
X2453203D2*
X2482222D1*
X2553213D2*
X2682240D1*
X2753195D2*
X2782213D1*
X2853204D2*
X3283228D1*
X3354184D2*
X3583220D1*
X3654175D2*
X3722702D1*
X434718Y1634662D2*
X617966D1*
X1319443D2*
X1599471D1*
X1637951D2*
X1660187D1*
X1902238D2*
X2282239D1*
X2353194D2*
X2382212D1*
X2453203D2*
X2482222D1*
X2553213D2*
X2682240D1*
X2753195D2*
X2782213D1*
X2853204D2*
X3283228D1*
X3354184D2*
X3583220D1*
X3654175D2*
X3722702D1*
X434718Y1609793D2*
X610287D1*
X1327122D2*
X1568036D1*
X1902238D2*
X2282239D1*
X2353194D2*
X2382212D1*
X2453203D2*
X2482222D1*
X2553213D2*
X2682240D1*
X2753195D2*
X2782213D1*
X2853204D2*
X3273145D1*
X3354184D2*
X3583220D1*
X3654175D2*
X3722702D1*
X434718Y1584924D2*
X614378D1*
X1323031D2*
X1560321D1*
X1894307D2*
X2282239D1*
X2353194D2*
X2382212D1*
X2453203D2*
X2482222D1*
X2553213D2*
X2682240D1*
X2753195D2*
X2782213D1*
X2853204D2*
X3248277D1*
X3346397D2*
X3583220D1*
X3654175D2*
X3722702D1*
X434718Y1560056D2*
X634437D1*
X702952D2*
X734446D1*
X802961D2*
X834420D1*
X1002980D2*
X1034438D1*
X1202962D2*
X1234421D1*
X1302972D2*
X1564340D1*
X1777217D2*
X1785314D1*
X1902094D2*
X2282239D1*
X2353194D2*
X2382212D1*
X2453203D2*
X2482222D1*
X2553213D2*
X2682240D1*
X2753195D2*
X2782213D1*
X2853204D2*
X3223410D1*
X3321708D2*
X3583220D1*
X3654175D2*
X3722702D1*
X434718Y1535187D2*
X883222D1*
X954177D2*
X1048541D1*
X1146840D2*
X1584256D1*
X1777217D2*
X1789247D1*
X1898147D2*
X2282239D1*
X2353194D2*
X2382212D1*
X2453203D2*
X2482222D1*
X2553213D2*
X2682240D1*
X2753195D2*
X2782213D1*
X2853204D2*
X3198542D1*
X3296841D2*
X3583220D1*
X3654175D2*
X3722702D1*
X434718Y1510318D2*
X883222D1*
X954177D2*
X1023673D1*
X1121972D2*
X1683224D1*
X1754179D2*
X1809070D1*
X1878339D2*
X2282239D1*
X2353194D2*
X2382212D1*
X2453203D2*
X2482222D1*
X2553213D2*
X2682240D1*
X2753195D2*
X2782213D1*
X2853204D2*
X3173674D1*
X3271973D2*
X3583220D1*
X3654175D2*
X3722702D1*
X434718Y1485449D2*
X883222D1*
X954177D2*
X998805D1*
X1097104D2*
X1683224D1*
X1893984D2*
X2282239D1*
X2353194D2*
X2382212D1*
X2453203D2*
X2482222D1*
X2553213D2*
X2682240D1*
X2753195D2*
X2782213D1*
X2853204D2*
X3148806D1*
X3247105D2*
X3583220D1*
X3654175D2*
X3722702D1*
X434718Y1460581D2*
X883222D1*
X954177D2*
X983519D1*
X1072236D2*
X1691262D1*
X1902058D2*
X2282239D1*
X2353194D2*
X2382212D1*
X2453203D2*
X2482222D1*
X2553213D2*
X2682240D1*
X2753195D2*
X2782213D1*
X2853204D2*
X3123939D1*
X3222237D2*
X3583220D1*
X3654175D2*
X3722702D1*
X434718Y1435712D2*
X883222D1*
X954177D2*
X983196D1*
X1054187D2*
X1252650D1*
X2053274D2*
X2282239D1*
X2353194D2*
X2382212D1*
X2453203D2*
X2482222D1*
X2553213D2*
X2682240D1*
X2753195D2*
X2782213D1*
X2853204D2*
X3099071D1*
X3197370D2*
X3583220D1*
X3654175D2*
X3722702D1*
X434718Y1410843D2*
X883222D1*
X954177D2*
X983196D1*
X1054187D2*
X1224194D1*
X2064326D2*
X2282239D1*
X2353194D2*
X2382212D1*
X2453203D2*
X2482222D1*
X2553213D2*
X2682240D1*
X2753195D2*
X2782213D1*
X2853204D2*
X3074203D1*
X3172502D2*
X3583220D1*
X3654175D2*
X3722702D1*
X434718Y1385974D2*
X883222D1*
X954177D2*
X983196D1*
X1054187D2*
X1199326D1*
X2060487D2*
X2282239D1*
X2353194D2*
X2382212D1*
X2453203D2*
X2482222D1*
X2553213D2*
X2682240D1*
X2753195D2*
X2782213D1*
X2853204D2*
X3049335D1*
X3147634D2*
X3583220D1*
X3654175D2*
X3722702D1*
X434718Y1361106D2*
X610180D1*
X727210D2*
X755080D1*
X782328D2*
X855089D1*
X1082320D2*
X1155081D1*
X1282302D2*
X1568826D1*
X1902022D2*
X1980166D1*
X2051157D2*
X2282239D1*
X2353194D2*
X2382212D1*
X2453203D2*
X2482222D1*
X2553213D2*
X2682240D1*
X2753195D2*
X2782213D1*
X2853204D2*
X3024468D1*
X3122766D2*
X3583220D1*
X3654175D2*
X3722702D1*
X434718Y1336237D2*
X610180D1*
X1318474D2*
X1560393D1*
X1898542D2*
X1980166D1*
X2051157D2*
X2282239D1*
X2353194D2*
X2382212D1*
X2453203D2*
X2482222D1*
X2553213D2*
X2682240D1*
X2753195D2*
X2782213D1*
X2853204D2*
X2999600D1*
X3097899D2*
X3583220D1*
X3654175D2*
X3722702D1*
X434718Y1311368D2*
X610180D1*
X1326978D2*
X1563802D1*
X1797025D2*
X1807622D1*
X1879774D2*
X1980166D1*
X2051157D2*
X2282239D1*
X2353194D2*
X2382212D1*
X2453203D2*
X2482222D1*
X2553213D2*
X2682240D1*
X2753195D2*
X2782213D1*
X2853204D2*
X2974732D1*
X3073031D2*
X3583220D1*
X3654175D2*
X3722702D1*
X434718Y1286499D2*
X610180D1*
X1323641D2*
X1582426D1*
X1777217D2*
X1794071D1*
X1893302D2*
X1980166D1*
X2051157D2*
X2282239D1*
X2353194D2*
X2382212D1*
X2453203D2*
X2482222D1*
X2553213D2*
X2682240D1*
X2753195D2*
X2782213D1*
X2853204D2*
X2949864D1*
X3048163D2*
X3583220D1*
X3654175D2*
X3722702D1*
X434718Y1261630D2*
X610180D1*
X805150D2*
X832267D1*
X1105142D2*
X1132259D1*
X1205151D2*
X1232268D1*
X1305125D2*
X1785458D1*
X1901951D2*
X1980166D1*
X2051157D2*
X2282239D1*
X2353194D2*
X2382212D1*
X2453203D2*
X2482222D1*
X2553213D2*
X2682240D1*
X2753195D2*
X2782213D1*
X2853204D2*
X2924961D1*
X3023295D2*
X3583220D1*
X3654175D2*
X3722702D1*
X434718Y1236762D2*
X833200D1*
X954177D2*
X983196D1*
X1104173D2*
X1788652D1*
X1898757D2*
X1980166D1*
X2051157D2*
X2282239D1*
X2353194D2*
X2382212D1*
X2453203D2*
X2482222D1*
X2553213D2*
X2682240D1*
X2753195D2*
X2782213D1*
X2853204D2*
X2900093D1*
X2998428D2*
X3583220D1*
X3654175D2*
X3722702D1*
X434718Y1211893D2*
X477121D1*
X560277D2*
X577130D1*
X660250D2*
X677139D1*
X760259D2*
X777149D1*
X954177D2*
X983196D1*
X1127228D2*
X1210163D1*
X1227256D2*
X1277123D1*
X1477225D2*
X1800243D1*
X1880492D2*
X1980166D1*
X2051157D2*
X2060152D1*
X2077237D2*
X2160161D1*
X2177217D2*
X2260170D1*
X2577255D2*
X2660171D1*
X2973560D2*
X3583220D1*
X3654175D2*
X3722702D1*
X434718Y1187024D2*
X455555D1*
X1477225D2*
X1775375D1*
X1873028D2*
X1980166D1*
X2948692D2*
X3583220D1*
X3654175D2*
X3722702D1*
X434718Y1162155D2*
X448449D1*
X1477225D2*
X1750507D1*
X1848806D2*
X1980166D1*
X2927234D2*
X3583220D1*
X3654175D2*
X3722702D1*
X434718Y1137287D2*
X450854D1*
X1477225D2*
X1725639D1*
X1823938D2*
X1980166D1*
X3654175D2*
X3722702D1*
X434718Y1112418D2*
X464131D1*
X956151D2*
X981258D1*
X1056160D2*
X1081267D1*
X1156134D2*
X1181240D1*
X1256143D2*
X1264155D1*
X1477225D2*
X1569687D1*
X1799071D2*
X1980166D1*
X2106132D2*
X2131238D1*
X2206141D2*
X2231248D1*
X3646855D2*
X3722702D1*
X434718Y1087549D2*
X833200D1*
X904191D2*
X1560536D1*
X1777217D2*
X1980166D1*
X2051157D2*
X2313207D1*
X2553213D2*
X2588188D1*
X3622238D2*
X3722702D1*
X434718Y1062680D2*
X833200D1*
X904191D2*
X1563335D1*
X1777217D2*
X1980166D1*
X2051157D2*
X2332226D1*
X3274844D2*
X3722702D1*
X434718Y1037812D2*
X833200D1*
X904191D2*
X1580775D1*
X1781990D2*
X1980920D1*
X2271881D2*
X2332226D1*
X3298384D2*
X3722702D1*
X434718Y1012943D2*
X833738D1*
X2296354D2*
X2332226D1*
X2504195D2*
X3226280D1*
X3303192D2*
X3722702D1*
X434718Y988074D2*
X850281D1*
X2303208D2*
X2332226D1*
X3173471D2*
X3232237D1*
X3303192D2*
X3722702D1*
X434718Y963205D2*
X877696D1*
X2203198D2*
X2232217D1*
X2303208D2*
X2332226D1*
X3198339D2*
X3232237D1*
X3303192D2*
X3722702D1*
X434718Y938336D2*
X1982355D1*
X2055032D2*
X2082364D1*
X3355045D2*
X3382341D1*
X3455054D2*
X3482350D1*
X3677213D2*
X3722702D1*
X434718Y913468D2*
X1963767D1*
X2777238D2*
X2863778D1*
X3677213D2*
X3722702D1*
X434718Y888599D2*
X1779502D1*
X1857885D2*
X1960430D1*
X2777238D2*
X2860405D1*
X3677213D2*
X3722702D1*
X434718Y863730D2*
X1761775D1*
X1875612D2*
X1968862D1*
X2797835D2*
X2868874D1*
X3677213D2*
X3722702D1*
X434718Y838861D2*
X1758402D1*
X1878985D2*
X2004747D1*
X2032641D2*
X2083225D1*
X2532651D2*
X2604766D1*
X2822703D2*
X2904758D1*
X2932652D2*
X3004767D1*
X3032625D2*
X3104740D1*
X3332653D2*
X3404768D1*
X3432626D2*
X3504742D1*
X3532636D2*
X3560183D1*
X3677213D2*
X3722702D1*
X434718Y813993D2*
X1766404D1*
X1871018D2*
X2083225D1*
X2203414D2*
X2232217D1*
X2303208D2*
X2332226D1*
X2403217D2*
X2432235D1*
X2503190D2*
X2649263D1*
X2847571D2*
X3149273D1*
X3278540D2*
X3722702D1*
X434718Y789124D2*
X1796618D1*
X1840804D2*
X2083225D1*
X2303208D2*
X2332226D1*
X2403217D2*
X2432235D1*
X2503190D2*
X2674130D1*
X3372413D2*
X3722702D1*
X434718Y764255D2*
X2083225D1*
X2303208D2*
X2332226D1*
X2403217D2*
X2432235D1*
X2503190D2*
X2698998D1*
X3397280D2*
X3722702D1*
X434718Y739386D2*
X2083225D1*
X2154180D2*
X2179718D1*
X2303208D2*
X2332226D1*
X2403217D2*
X2432235D1*
X2503190D2*
X2723866D1*
X2822165D2*
X3323849D1*
X3422148D2*
X3722702D1*
X434718Y714518D2*
X2083907D1*
X2174670D2*
X2183236D1*
X2303208D2*
X2332226D1*
X2403217D2*
X2432235D1*
X2503190D2*
X2748733D1*
X3447052D2*
X3722702D1*
X434718Y689649D2*
X1758222D1*
X1879200D2*
X2101203D1*
X2303208D2*
X2332226D1*
X2403217D2*
X2432235D1*
X2503190D2*
X2665482D1*
X3471920D2*
X3722702D1*
X434718Y664780D2*
X1758222D1*
X1879200D2*
X2126071D1*
X2303208D2*
X2332226D1*
X2403217D2*
X2432235D1*
X2503190D2*
X2640614D1*
X3496787D2*
X3722702D1*
X434718Y639911D2*
X1758222D1*
X1879200D2*
X1966279D1*
X2071109D2*
X2084517D1*
X2552854D2*
X2584527D1*
X3052864D2*
X3084538D1*
X3152873D2*
X3184547D1*
X3252883D2*
X3284520D1*
X3552874D2*
X3584548D1*
X3652884D2*
X3722702D1*
X434718Y615043D2*
X1758222D1*
X1879200D2*
X1951602D1*
X2773003D2*
X2864388D1*
X3672979D2*
X3722702D1*
X434718Y590174D2*
X1758222D1*
X1879200D2*
X1948265D1*
X2777094D2*
X2860297D1*
X3677105D2*
X3722702D1*
X434718Y565305D2*
X1954365D1*
X3669498D2*
X3722702D1*
X434718Y540436D2*
X1973886D1*
X2063501D2*
X2098835D1*
X3638566D2*
X3722702D1*
X435436Y515567D2*
X2168917D1*
X2889663D2*
X2968919D1*
X3589691D2*
X3721949D1*
X440316Y490699D2*
X3717068D1*
X454095Y465830D2*
X3703325D1*
X485638Y440961D2*
X3671747D1*
X1876659Y2066863D2*
X1875962Y2059552D1*
X1874347Y2052388D1*
X1871838Y2045485D1*
X1868478Y2038955D1*
X1864319Y2032902D1*
X1859429Y2027423D1*
X1853885Y2022606D1*
X1847776Y2018528D1*
X1841202Y2015256D1*
X1834266Y2012840D1*
X1827081Y2011321D1*
X1819761Y2010722D1*
X1812425Y2011052D1*
X1805189Y2012308D1*
X1798169Y2014468D1*
X1791479Y2017498D1*
X1785226Y2021349D1*
X1779509Y2025960D1*
X1774422Y2031256D1*
X1770044Y2037153D1*
X1766447Y2043556D1*
X1763688Y2050362D1*
X1761811Y2057462D1*
X1760847Y2064743D1*
X1760811Y2072087D1*
X1761703Y2079377D1*
X1763510Y2086495D1*
X1766202Y2093328D1*
X1769736Y2099766D1*
X1774055Y2105706D1*
X1779090Y2111052D1*
X1784761Y2115719D1*
X1790976Y2119632D1*
X1797636Y2122727D1*
X1804634Y2124956D1*
X1811857Y2126283D1*
X1819190Y2126686D1*
X1826516Y2126159D1*
X1833715Y2124710D1*
X1840674Y2122363D1*
X1847281Y2119155D1*
X1853429Y2115138D1*
X1859020Y2110376D1*
X1863964Y2104946D1*
X1868183Y2098934D1*
X1871607Y2092437D1*
X1874183Y2085559D1*
X1875869Y2078411D1*
X1876638Y2071108D1*
X1876659Y2066863D1*
X1769898Y2326688D2*
X1876688D1*
Y2224741D1*
X2078063Y2224719D1*
X2116083Y2262735D1*
X2109937Y2263370D1*
X2101389Y2265422D1*
X2093268Y2268786D1*
X2085772Y2273379D1*
X2079088Y2279088D1*
X2073379Y2285772D1*
X2068707Y2293439D1*
X2064021Y2285772D1*
X2058312Y2279088D1*
X2051628Y2273379D1*
X2044132Y2268786D1*
X2036011Y2265422D1*
X2027463Y2263370D1*
X2018700Y2262680D1*
X2009937Y2263370D1*
X2001389Y2265422D1*
X1993268Y2268786D1*
X1985772Y2273379D1*
X1979088Y2279088D1*
X1973379Y2285772D1*
X1968786Y2293268D1*
X1965422Y2301389D1*
X1963370Y2309937D1*
X1962680Y2318700D1*
X1963370Y2327463D1*
X1965422Y2336011D1*
X1968786Y2344132D1*
X1973379Y2351628D1*
X1979088Y2358312D1*
X1985772Y2364021D1*
X1993268Y2368614D1*
X2001389Y2371978D1*
X2009937Y2374030D1*
X2018700Y2374720D1*
X2027463Y2374030D1*
X2036011Y2371978D1*
X2044132Y2368614D1*
X2051628Y2364021D1*
X2058312Y2358312D1*
X2064021Y2351628D1*
X2068693Y2343961D1*
X2073379Y2351628D1*
X2079088Y2358312D1*
X2085772Y2364021D1*
X2093268Y2368614D1*
X2101389Y2371978D1*
X2109937Y2374030D1*
X2118700Y2374720D1*
X2127378Y2374040D1*
X2146292Y2392800D1*
X2150480Y2395843D1*
X2155092Y2398193D1*
X2160015Y2399793D1*
X2165128Y2400603D1*
X2232020Y2400704D1*
X2872272Y2400603D1*
X2877385Y2399793D1*
X2882308Y2398193D1*
X2886920Y2395843D1*
X2891108Y2392800D1*
X2909985Y2374067D1*
X2918700Y2374720D1*
X2927463Y2374030D1*
X2936011Y2371978D1*
X2944132Y2368614D1*
X2951628Y2364021D1*
X2958312Y2358312D1*
X2964021Y2351628D1*
X2968693Y2343961D1*
X2973379Y2351628D1*
X2979088Y2358312D1*
X2985772Y2364021D1*
X2993268Y2368614D1*
X3001389Y2371978D1*
X3009937Y2374030D1*
X3018700Y2374720D1*
X3027463Y2374030D1*
X3036011Y2371978D1*
X3044132Y2368614D1*
X3051628Y2364021D1*
X3058312Y2358312D1*
X3064021Y2351628D1*
X3068693Y2343961D1*
X3073379Y2351628D1*
X3079088Y2358312D1*
X3085772Y2364021D1*
X3093268Y2368614D1*
X3101389Y2371978D1*
X3109937Y2374030D1*
X3118700Y2374720D1*
X3127463Y2374030D1*
X3136011Y2371978D1*
X3144132Y2368614D1*
X3151628Y2364021D1*
X3158312Y2358312D1*
X3164021Y2351628D1*
X3168693Y2343961D1*
X3173379Y2351628D1*
X3179088Y2358312D1*
X3185772Y2364021D1*
X3193268Y2368614D1*
X3201389Y2371978D1*
X3209937Y2374030D1*
X3218700Y2374720D1*
X3227463Y2374030D1*
X3236011Y2371978D1*
X3244132Y2368614D1*
X3251628Y2364021D1*
X3258312Y2358312D1*
X3264021Y2351628D1*
X3268693Y2343961D1*
X3273379Y2351628D1*
X3279088Y2358312D1*
X3285772Y2364021D1*
X3293268Y2368614D1*
X3301389Y2371978D1*
X3309937Y2374030D1*
X3318700Y2374720D1*
X3327463Y2374030D1*
X3336011Y2371978D1*
X3344132Y2368614D1*
X3351628Y2364021D1*
X3358312Y2358312D1*
X3364021Y2351628D1*
X3368693Y2343961D1*
X3373379Y2351628D1*
X3379088Y2358312D1*
X3385772Y2364021D1*
X3393268Y2368614D1*
X3401389Y2371978D1*
X3409937Y2374030D1*
X3418700Y2374720D1*
X3427463Y2374030D1*
X3436011Y2371978D1*
X3444132Y2368614D1*
X3451628Y2364021D1*
X3458312Y2358312D1*
X3464021Y2351628D1*
X3468693Y2343961D1*
X3473379Y2351628D1*
X3479088Y2358312D1*
X3485772Y2364021D1*
X3493268Y2368614D1*
X3501389Y2371978D1*
X3509937Y2374030D1*
X3518700Y2374720D1*
X3527463Y2374030D1*
X3536011Y2371978D1*
X3544132Y2368614D1*
X3551628Y2364021D1*
X3558312Y2358312D1*
X3564021Y2351628D1*
X3568693Y2343961D1*
X3573379Y2351628D1*
X3579088Y2358312D1*
X3585772Y2364021D1*
X3593268Y2368614D1*
X3601389Y2371978D1*
X3609937Y2374030D1*
X3618700Y2374720D1*
X3627463Y2374030D1*
X3636011Y2371978D1*
X3644132Y2368614D1*
X3651628Y2364021D1*
X3658312Y2358312D1*
X3664021Y2351628D1*
X3668614Y2344132D1*
X3671978Y2336011D1*
X3674030Y2327463D1*
X3674720Y2318700D1*
X3674030Y2309937D1*
X3671978Y2301389D1*
X3668614Y2293268D1*
X3664021Y2285772D1*
X3658312Y2279088D1*
X3651628Y2273379D1*
X3644132Y2268786D1*
X3636011Y2265422D1*
X3627463Y2263370D1*
X3618700Y2262680D1*
X3610022Y2263360D1*
X3421298Y2074646D1*
X3427463Y2074030D1*
X3436011Y2071978D1*
X3444132Y2068614D1*
X3451628Y2064021D1*
X3458312Y2058312D1*
X3464021Y2051628D1*
X3468693Y2043961D1*
X3473379Y2051628D1*
X3479088Y2058312D1*
X3485772Y2064021D1*
X3493268Y2068614D1*
X3501389Y2071978D1*
X3509937Y2074030D1*
X3518700Y2074720D1*
X3527463Y2074030D1*
X3536011Y2071978D1*
X3544132Y2068614D1*
X3551628Y2064021D1*
X3558312Y2058312D1*
X3564021Y2051628D1*
X3568693Y2043961D1*
X3573379Y2051628D1*
X3579088Y2058312D1*
X3585772Y2064021D1*
X3593268Y2068614D1*
X3601389Y2071978D1*
X3609937Y2074030D1*
X3618700Y2074720D1*
X3627463Y2074030D1*
X3636011Y2071978D1*
X3644132Y2068614D1*
X3651628Y2064021D1*
X3658312Y2058312D1*
X3664021Y2051628D1*
X3668614Y2044132D1*
X3671978Y2036011D1*
X3674030Y2027463D1*
X3674720Y2018700D1*
X3674030Y2009937D1*
X3671978Y2001389D1*
X3668614Y1993268D1*
X3664021Y1985772D1*
X3658312Y1979088D1*
X3651695Y1973432D1*
X3651587Y1130576D1*
X3650777Y1125463D1*
X3649177Y1120540D1*
X3646827Y1115928D1*
X3643784Y1111740D1*
X3616042Y1083854D1*
X3612106Y1080492D1*
X3607692Y1077787D1*
X3602910Y1075806D1*
X3597876Y1074598D1*
X3592716Y1074192D1*
X3259890D1*
X3265058Y1069979D1*
X3292800Y1042093D1*
X3295843Y1037905D1*
X3298193Y1033293D1*
X3299793Y1028370D1*
X3300602Y1023257D1*
X3300704Y956365D1*
Y946783D1*
X3309937Y949030D1*
X3318700Y949720D1*
X3327463Y949030D1*
X3336011Y946978D1*
X3344132Y943614D1*
X3351628Y939021D1*
X3358312Y933312D1*
X3364021Y926628D1*
X3368693Y918961D1*
X3373379Y926628D1*
X3379088Y933312D1*
X3385772Y939021D1*
X3393268Y943614D1*
X3401389Y946978D1*
X3409937Y949030D1*
X3418700Y949720D1*
X3427463Y949030D1*
X3436011Y946978D1*
X3444132Y943614D1*
X3451628Y939021D1*
X3458312Y933312D1*
X3464021Y926628D1*
X3468693Y918961D1*
X3473379Y926628D1*
X3479088Y933312D1*
X3485772Y939021D1*
X3493268Y943614D1*
X3501389Y946978D1*
X3509937Y949030D1*
X3518700Y949720D1*
X3527463Y949030D1*
X3536011Y946978D1*
X3544132Y943614D1*
X3551628Y939021D1*
X3558312Y933312D1*
X3562670Y928341D1*
X3562680Y949720D1*
X3674720D1*
Y837680D1*
X3562680D1*
Y859031D1*
X3558312Y854088D1*
X3551628Y848379D1*
X3544132Y843786D1*
X3536011Y840422D1*
X3527463Y838370D1*
X3518700Y837680D1*
X3509937Y838370D1*
X3501389Y840422D1*
X3493268Y843786D1*
X3485772Y848379D1*
X3479088Y854088D1*
X3473379Y860772D1*
X3468707Y868439D1*
X3464021Y860772D1*
X3458312Y854088D1*
X3451628Y848379D1*
X3444132Y843786D1*
X3436011Y840422D1*
X3427463Y838370D1*
X3418700Y837680D1*
X3409937Y838370D1*
X3401389Y840422D1*
X3393268Y843786D1*
X3385772Y848379D1*
X3379088Y854088D1*
X3373379Y860772D1*
X3368707Y868439D1*
X3364021Y860772D1*
X3358312Y854088D1*
X3351628Y848379D1*
X3344132Y843786D1*
X3336011Y840422D1*
X3327463Y838370D1*
X3318700Y837680D1*
X3309937Y838370D1*
X3301389Y840422D1*
X3298826Y841368D1*
X3297109Y837343D1*
X3294404Y832929D1*
X3291042Y828993D1*
X3269398Y807349D1*
X3340623Y807251D1*
X3345736Y806442D1*
X3350659Y804842D1*
X3355271Y802492D1*
X3359459Y799449D1*
X3406831Y752221D1*
X3510027Y649025D1*
X3518700Y649720D1*
X3527463Y649030D1*
X3536011Y646978D1*
X3544132Y643614D1*
X3551628Y639021D1*
X3558312Y633312D1*
X3564021Y626628D1*
X3568693Y618961D1*
X3573379Y626628D1*
X3579088Y633312D1*
X3585772Y639021D1*
X3593268Y643614D1*
X3601389Y646978D1*
X3609937Y649030D1*
X3618700Y649720D1*
X3627463Y649030D1*
X3636011Y646978D1*
X3644132Y643614D1*
X3651628Y639021D1*
X3658312Y633312D1*
X3664021Y626628D1*
X3668614Y619132D1*
X3671978Y611011D1*
X3674030Y602463D1*
X3674720Y593700D1*
X3674030Y584937D1*
X3671978Y576389D1*
X3668614Y568268D1*
X3664021Y560772D1*
X3658312Y554088D1*
X3651628Y548379D1*
X3644132Y543786D1*
X3636011Y540422D1*
X3627463Y538370D1*
X3618700Y537680D1*
X3610022Y538360D1*
X3586317Y514809D1*
X3582129Y511766D1*
X3577517Y509416D1*
X3572594Y507816D1*
X3567481Y507007D1*
X3500589Y506905D1*
X2991112Y507007D1*
X2985999Y507816D1*
X2981076Y509416D1*
X2976464Y511766D1*
X2972276Y514809D1*
X2944383Y542558D1*
X2940138Y541945D1*
X2931778Y539228D1*
X2923095Y537853D1*
X2914305D1*
X2910022Y538360D1*
X2886317Y514809D1*
X2882129Y511766D1*
X2877517Y509416D1*
X2872594Y507816D1*
X2867481Y507006D1*
X2800589Y506905D1*
X2191112Y507006D1*
X2185999Y507816D1*
X2181076Y509416D1*
X2176464Y511766D1*
X2172276Y514809D1*
X2144383Y542558D1*
X2140138Y541945D1*
X2131778Y539228D1*
X2123095Y537853D1*
X2114305D1*
X2105622Y539228D1*
X2097262Y541945D1*
X2089430Y545935D1*
X2082318Y551102D1*
X2076161Y557255D1*
X2070429Y549520D1*
X2062880Y541971D1*
X2054244Y535697D1*
X2044733Y530851D1*
X2034581Y527552D1*
X2024037Y525882D1*
X2013363D1*
X2002819Y527552D1*
X1992667Y530851D1*
X1983156Y535697D1*
X1974520Y541971D1*
X1966971Y549520D1*
X1960697Y558156D1*
X1955851Y567667D1*
X1952552Y577819D1*
X1950882Y588363D1*
Y599037D1*
X1952552Y609581D1*
X1955851Y619733D1*
X1960697Y629244D1*
X1966971Y637880D1*
X1974520Y645429D1*
X1983156Y651703D1*
X1992667Y656549D1*
X2002819Y659848D1*
X2013363Y661518D1*
X2024037D1*
X2034581Y659848D1*
X2044733Y656549D1*
X2054244Y651703D1*
X2062880Y645429D1*
X2070429Y637880D1*
X2076135Y630094D1*
X2082318Y636298D1*
X2089430Y641465D1*
X2097262Y645455D1*
X2105622Y648172D1*
X2114305Y649547D1*
X2123095D1*
X2131778Y648172D1*
X2134738Y647337D1*
X2134728Y658638D1*
X2093616Y699894D1*
X2090573Y704082D1*
X2088223Y708694D1*
X2086623Y713617D1*
X2085813Y718730D1*
X2085712Y785622D1*
Y848456D1*
X2079088Y854088D1*
X2073379Y860772D1*
X2068707Y868439D1*
X2065238Y862517D1*
X2060759Y856697D1*
X2055557Y851513D1*
X2049722Y847054D1*
X2043354Y843397D1*
X2036562Y840604D1*
X2029463Y838724D1*
X2022179Y837788D1*
X2014835Y837814D1*
X2007558Y838800D1*
X2000472Y840729D1*
X1993699Y843568D1*
X1987356Y847270D1*
X1981552Y851769D1*
X1976386Y856988D1*
X1971947Y862839D1*
X1968312Y869220D1*
X1965543Y876022D1*
X1963687Y883127D1*
X1962777Y890414D1*
X1962827Y897758D1*
X1963838Y905032D1*
X1965792Y912111D1*
X1968655Y918874D1*
X1972378Y925204D1*
X1976897Y930993D1*
X1982135Y936140D1*
X1988001Y940559D1*
X1994394Y944172D1*
X2001205Y946918D1*
X2008317Y948749D1*
X2015607Y949634D1*
X2022951Y949558D1*
X2030221Y948522D1*
X2037294Y946544D1*
X2044046Y943658D1*
X2050364Y939913D1*
X2056137Y935374D1*
X2061266Y930118D1*
X2065665Y924237D1*
X2068696Y918956D1*
X2073379Y926628D1*
X2079088Y933312D1*
X2085772Y939021D1*
X2093268Y943614D1*
X2101389Y946978D1*
X2109937Y949030D1*
X2118700Y949720D1*
X2127463Y949030D1*
X2134738Y947337D1*
X2134728Y953214D1*
X2128074Y959843D1*
X1800509Y959850D1*
X1795043Y955225D1*
X1788823Y951413D1*
X1782083Y948621D1*
X1774989Y946918D1*
X1767716Y946346D1*
X1760443Y946918D1*
X1753349Y948621D1*
X1746609Y951413D1*
X1740389Y955225D1*
X1734956Y959857D1*
X892096Y959952D1*
X886983Y960761D1*
X882060Y962361D1*
X877448Y964711D1*
X873260Y967754D1*
X845374Y995496D1*
X842012Y999432D1*
X839307Y1003846D1*
X837326Y1008628D1*
X836118Y1013662D1*
X835712Y1018832D1*
Y1090339D1*
X829342Y1089010D1*
X818700Y1088172D1*
X808058Y1089010D1*
X797678Y1091502D1*
X787816Y1095587D1*
X778714Y1101165D1*
X770597Y1108097D1*
X768742Y1110104D1*
X762880Y1104471D1*
X754244Y1098197D1*
X744733Y1093351D1*
X734581Y1090052D1*
X724037Y1088382D1*
X713363D1*
X702819Y1090052D1*
X692667Y1093351D1*
X683156Y1098197D1*
X674520Y1104471D1*
X668742Y1110104D1*
X662880Y1104471D1*
X654244Y1098197D1*
X644733Y1093351D1*
X634581Y1090052D1*
X624037Y1088382D1*
X613363D1*
X602819Y1090052D1*
X592667Y1093351D1*
X583156Y1098197D1*
X574520Y1104471D1*
X568742Y1110104D1*
X562880Y1104471D1*
X554244Y1098197D1*
X544733Y1093351D1*
X534581Y1090052D1*
X524037Y1088382D1*
X513363D1*
X502819Y1090052D1*
X492667Y1093351D1*
X483156Y1098197D1*
X474520Y1104471D1*
X466971Y1112020D1*
X460697Y1120656D1*
X455851Y1130167D1*
X452552Y1140319D1*
X450882Y1150863D1*
Y1161537D1*
X452552Y1172081D1*
X455851Y1182233D1*
X460697Y1191744D1*
X466971Y1200380D1*
X474520Y1207929D1*
X483156Y1214203D1*
X492667Y1219049D1*
X502819Y1222348D1*
X513363Y1224018D1*
X524037D1*
X534581Y1222348D1*
X544733Y1219049D1*
X554244Y1214203D1*
X562880Y1207929D1*
X568658Y1202296D1*
X574520Y1207929D1*
X583156Y1214203D1*
X592667Y1219049D1*
X602819Y1222348D1*
X613363Y1224018D1*
X624037D1*
X634581Y1222348D1*
X644733Y1219049D1*
X654244Y1214203D1*
X662880Y1207929D1*
X668658Y1202296D1*
X674520Y1207929D1*
X683156Y1214203D1*
X692667Y1219049D1*
X702819Y1222348D1*
X713363Y1224018D1*
X724037D1*
X734581Y1222348D1*
X744733Y1219049D1*
X754244Y1214203D1*
X762880Y1207929D1*
X768658Y1202296D1*
X774520Y1207929D1*
X783156Y1214203D1*
X792667Y1219049D1*
X802819Y1222348D1*
X813363Y1224018D1*
X824037D1*
X834581Y1222348D1*
X835725Y1222025D1*
X835712Y1260933D1*
X829088Y1266588D1*
X823379Y1273272D1*
X818707Y1280939D1*
X814021Y1273272D1*
X808312Y1266588D1*
X801628Y1260879D1*
X794132Y1256286D1*
X786011Y1252922D1*
X777463Y1250870D1*
X768700Y1250180D1*
X759937Y1250870D1*
X751389Y1252922D1*
X743268Y1256286D1*
X735772Y1260879D1*
X729088Y1266588D1*
X724730Y1271559D1*
X724720Y1250180D1*
X612681D1*
Y1362219D1*
X724720D1*
Y1340897D1*
X729088Y1345812D1*
X735772Y1351521D1*
X743268Y1356114D1*
X751389Y1359478D1*
X759937Y1361530D1*
X768700Y1362220D1*
X777463Y1361530D1*
X786011Y1359478D1*
X794132Y1356114D1*
X801628Y1351521D1*
X808312Y1345812D1*
X814021Y1339128D1*
X818693Y1331461D1*
X823379Y1339128D1*
X829088Y1345812D1*
X835772Y1351521D1*
X843268Y1356114D1*
X851389Y1359478D1*
X859937Y1361530D1*
X868700Y1362220D1*
X877463Y1361530D1*
X885697Y1359567D1*
X885712Y1542565D1*
X877384Y1550864D1*
X868700Y1550180D1*
X859937Y1550870D1*
X851389Y1552922D1*
X843268Y1556286D1*
X835772Y1560879D1*
X829088Y1566588D1*
X823379Y1573272D1*
X818707Y1580939D1*
X815238Y1575017D1*
X810759Y1569197D1*
X805557Y1564013D1*
X799722Y1559554D1*
X793354Y1555897D1*
X786562Y1553104D1*
X779463Y1551224D1*
X772179Y1550288D1*
X764835Y1550314D1*
X757558Y1551300D1*
X750472Y1553229D1*
X743699Y1556068D1*
X737356Y1559770D1*
X731552Y1564269D1*
X726386Y1569488D1*
X721947Y1575339D1*
X718704Y1580945D1*
X714021Y1573272D1*
X708312Y1566588D1*
X701628Y1560879D1*
X694132Y1556286D1*
X686011Y1552922D1*
X677463Y1550870D1*
X668700Y1550180D1*
X659937Y1550870D1*
X651389Y1552922D1*
X643268Y1556286D1*
X635772Y1560879D1*
X629088Y1566588D1*
X623379Y1573272D1*
X618786Y1580768D1*
X615422Y1588889D1*
X613370Y1597437D1*
X612680Y1606200D1*
X613370Y1614963D1*
X615422Y1623511D1*
X618786Y1631632D1*
X623379Y1639128D1*
X629088Y1645812D1*
X629706Y1646383D1*
X629828Y1664279D1*
X630785Y1670323D1*
X632676Y1676142D1*
X635454Y1681593D1*
X639050Y1686543D1*
X643377Y1690870D1*
X648327Y1694466D1*
X653778Y1697244D1*
X659597Y1699135D1*
X662612Y1699733D1*
X666128Y1701783D1*
X679703Y1715358D1*
X679088Y1716588D1*
X673379Y1723272D1*
X668707Y1730939D1*
X665238Y1725017D1*
X660759Y1719197D1*
X655557Y1714013D1*
X649722Y1709554D1*
X643354Y1705897D1*
X636562Y1703104D1*
X629463Y1701224D1*
X622179Y1700288D1*
X614835Y1700314D1*
X607558Y1701300D1*
X600472Y1703229D1*
X593699Y1706068D1*
X587356Y1709770D1*
X581552Y1714269D1*
X576151Y1719769D1*
X570429Y1712020D1*
X562880Y1704471D1*
X554244Y1698197D1*
X544733Y1693351D1*
X534581Y1690052D1*
X524037Y1688382D1*
X513363D1*
X502819Y1690052D1*
X492667Y1693351D1*
X483156Y1698197D1*
X474520Y1704471D1*
X466971Y1712020D1*
X460697Y1720656D1*
X455851Y1730167D1*
X452552Y1740319D1*
X450882Y1750863D1*
Y1761537D1*
X452552Y1772081D1*
X455851Y1782233D1*
X460697Y1791744D1*
X466971Y1800380D1*
X474520Y1807929D1*
X483156Y1814203D1*
X492667Y1819049D1*
X502819Y1822348D1*
X513363Y1824018D1*
X524037D1*
X534581Y1822348D1*
X544733Y1819049D1*
X554244Y1814203D1*
X562880Y1807929D1*
X570429Y1800380D1*
X576135Y1792594D1*
X580763Y1797419D1*
X586481Y1802027D1*
X592752Y1805848D1*
X599470Y1808816D1*
X606518Y1810879D1*
X613775Y1812003D1*
X621117Y1812168D1*
X628417Y1811370D1*
X635551Y1809625D1*
X642395Y1806962D1*
X648831Y1803426D1*
X654750Y1799079D1*
X660049Y1793995D1*
X664638Y1788261D1*
X668696Y1781456D1*
X673379Y1789128D1*
X679088Y1795812D1*
X679706Y1796383D1*
X679828Y2233767D1*
X680785Y2239811D1*
X682676Y2245630D1*
X685454Y2251081D1*
X689050Y2256031D1*
X723607Y2290758D1*
X731369Y2298350D1*
X736319Y2301946D1*
X741770Y2304724D1*
X747589Y2306615D1*
X753633Y2307572D1*
X802624Y2307692D1*
X1760696D1*
X1760712Y2326688D1*
X1769898D1*
X1760712Y2224743D2*
Y2229695D1*
X772855Y2229708D1*
X757697Y2214562D1*
X757692Y1796402D1*
X761239Y1792645D1*
X766971Y1800380D1*
X774520Y1807929D1*
X783156Y1814203D1*
X792667Y1819049D1*
X802819Y1822348D1*
X813363Y1824018D1*
X824037D1*
X834581Y1822348D1*
X844733Y1819049D1*
X854244Y1814203D1*
X862880Y1807929D1*
X870429Y1800380D1*
X876135Y1792594D1*
X882318Y1798798D1*
X889430Y1803965D1*
X897262Y1807955D1*
X905622Y1810672D1*
X914305Y1812047D1*
X923095D1*
X931778Y1810672D1*
X935697Y1809567D1*
X935814Y2168335D1*
X936623Y2173448D1*
X938223Y2178371D1*
X940573Y2182983D1*
X943616Y2187171D1*
X971358Y2215057D1*
X975294Y2218419D1*
X979708Y2221124D1*
X984490Y2223105D1*
X989524Y2224313D1*
X994694Y2224719D1*
X1760704D1*
X1876659Y841863D2*
X1875962Y834552D1*
X1874347Y827388D1*
X1871838Y820485D1*
X1868478Y813955D1*
X1864319Y807902D1*
X1859429Y802423D1*
X1853885Y797606D1*
X1847776Y793528D1*
X1841202Y790256D1*
X1834266Y787840D1*
X1827081Y786321D1*
X1819761Y785722D1*
X1812425Y786052D1*
X1805189Y787308D1*
X1798169Y789468D1*
X1791479Y792498D1*
X1785226Y796349D1*
X1779509Y800960D1*
X1774422Y806256D1*
X1770044Y812153D1*
X1766447Y818556D1*
X1763688Y825362D1*
X1761811Y832462D1*
X1760847Y839743D1*
X1760811Y847087D1*
X1761703Y854377D1*
X1763510Y861495D1*
X1766202Y868328D1*
X1769736Y874766D1*
X1774055Y880706D1*
X1779090Y886052D1*
X1784761Y890719D1*
X1790976Y894632D1*
X1797636Y897727D1*
X1804634Y899956D1*
X1811857Y901283D1*
X1819190Y901686D1*
X1826516Y901159D1*
X1833715Y899710D1*
X1840674Y897363D1*
X1847281Y894155D1*
X1853429Y890138D1*
X1859020Y885376D1*
X1863964Y879946D1*
X1868183Y873934D1*
X1871607Y867437D1*
X1874183Y860559D1*
X1875869Y853411D1*
X1876638Y846108D1*
X1876659Y841863D1*
X1769898Y701688D2*
X1876688D1*
Y585712D1*
X1760712D1*
Y701688D1*
X1769898D1*
X1662670Y1796559D2*
X1658312Y1791588D1*
X1651628Y1785879D1*
X1644132Y1781286D1*
X1636011Y1777922D1*
X1627463Y1775870D1*
X1618700Y1775180D1*
X1609937Y1775870D1*
X1601389Y1777922D1*
X1593268Y1781286D1*
X1585772Y1785879D1*
X1579088Y1791588D1*
X1573379Y1798272D1*
X1568786Y1805768D1*
X1565422Y1813889D1*
X1563370Y1822437D1*
X1562680Y1831200D1*
X1563370Y1839963D1*
X1565422Y1848511D1*
X1568786Y1856632D1*
X1573379Y1864128D1*
X1579088Y1870812D1*
X1582053Y1873553D1*
X1308383Y1873555D1*
X1301696Y1866901D1*
X1301688Y1822031D1*
X1308058Y1823390D1*
X1318700Y1824228D1*
X1329342Y1823390D1*
X1339722Y1820898D1*
X1349584Y1816813D1*
X1350658Y1816211D1*
X1350673Y1824227D1*
X1486728D1*
Y1688172D1*
X1350673D1*
Y1696174D1*
X1344733Y1693351D1*
X1334581Y1690052D1*
X1324037Y1688382D1*
X1313363D1*
X1302819Y1690052D1*
X1301675Y1690375D1*
X1301688Y1651509D1*
X1308312Y1645812D1*
X1314021Y1639128D1*
X1318614Y1631632D1*
X1321978Y1623511D1*
X1324030Y1614963D1*
X1324720Y1606200D1*
X1324030Y1597437D1*
X1321978Y1588889D1*
X1318614Y1580768D1*
X1314021Y1573272D1*
X1308312Y1566588D1*
X1301628Y1560879D1*
X1294132Y1556286D1*
X1286011Y1552922D1*
X1277463Y1550870D1*
X1268700Y1550180D1*
X1259937Y1550870D1*
X1251389Y1552922D1*
X1243268Y1556286D1*
X1235772Y1560879D1*
X1229088Y1566588D1*
X1223379Y1573272D1*
X1218707Y1580939D1*
X1214021Y1573272D1*
X1208312Y1566588D1*
X1201628Y1560879D1*
X1194132Y1556286D1*
X1186011Y1552922D1*
X1177463Y1550870D1*
X1168700Y1550180D1*
X1160022Y1550860D1*
X1051683Y1442531D1*
X1051688Y1359564D1*
X1059937Y1361530D1*
X1068700Y1362220D1*
X1077463Y1361530D1*
X1086011Y1359478D1*
X1094132Y1356114D1*
X1101628Y1351521D1*
X1108312Y1345812D1*
X1114021Y1339128D1*
X1118693Y1331461D1*
X1123379Y1339128D1*
X1129088Y1345812D1*
X1135772Y1351521D1*
X1143268Y1356114D1*
X1151389Y1359478D1*
X1159937Y1361530D1*
X1168700Y1362220D1*
X1177378Y1361540D1*
X1246292Y1430300D1*
X1250480Y1433343D1*
X1255092Y1435693D1*
X1260015Y1437293D1*
X1265128Y1438103D1*
X1332020Y1438204D1*
X1716017D1*
X1693616Y1460760D1*
X1690573Y1464948D1*
X1688223Y1469560D1*
X1686623Y1474483D1*
X1685813Y1479596D1*
X1685712Y1525209D1*
X1662680Y1525180D1*
Y1546531D1*
X1658312Y1541588D1*
X1651628Y1535879D1*
X1644132Y1531286D1*
X1636011Y1527922D1*
X1627463Y1525870D1*
X1618700Y1525180D1*
X1609937Y1525870D1*
X1601389Y1527922D1*
X1593268Y1531286D1*
X1585772Y1535879D1*
X1579088Y1541588D1*
X1573379Y1548272D1*
X1568786Y1555768D1*
X1565422Y1563889D1*
X1563370Y1572437D1*
X1562680Y1581200D1*
X1563370Y1589963D1*
X1565422Y1598511D1*
X1568786Y1606632D1*
X1573379Y1614128D1*
X1579088Y1620812D1*
X1585772Y1626521D1*
X1593268Y1631114D1*
X1601389Y1634478D1*
X1609937Y1636530D1*
X1618700Y1637220D1*
X1627463Y1636530D1*
X1636011Y1634478D1*
X1644132Y1631114D1*
X1651628Y1626521D1*
X1658312Y1620812D1*
X1662670Y1615841D1*
X1662680Y1637220D1*
X1734700D1*
X1734728Y1768508D1*
X1728074Y1775173D1*
X1662680Y1775180D1*
Y1796531D1*
X1774720Y1873548D2*
Y1821803D1*
X1792800Y1803608D1*
X1795843Y1799420D1*
X1798193Y1794808D1*
X1799793Y1789885D1*
X1800603Y1784772D1*
X1800704Y1717880D1*
Y1712246D1*
X1899720Y1712219D1*
Y1600180D1*
X1878397D1*
X1883312Y1595812D1*
X1889021Y1589128D1*
X1893614Y1581632D1*
X1896978Y1573511D1*
X1899030Y1564963D1*
X1899720Y1556200D1*
X1899030Y1547437D1*
X1896978Y1538889D1*
X1893614Y1530768D1*
X1889021Y1523272D1*
X1883312Y1516588D1*
X1876628Y1510879D1*
X1868961Y1506207D1*
X1876628Y1501521D1*
X1883312Y1495812D1*
X1889021Y1489128D1*
X1893614Y1481632D1*
X1896978Y1473511D1*
X1899030Y1464963D1*
X1899720Y1456200D1*
X1899030Y1447437D1*
X1896978Y1438889D1*
X1896722Y1438196D1*
X1982924Y1438204D1*
X1988342Y1442829D1*
X1994562Y1446641D1*
X2001302Y1449433D1*
X2008396Y1451136D1*
X2015669Y1451708D1*
X2022942Y1451136D1*
X2030036Y1449433D1*
X2036776Y1446641D1*
X2042996Y1442829D1*
X2048544Y1438091D1*
X2053282Y1432543D1*
X2057094Y1426323D1*
X2059886Y1419583D1*
X2061589Y1412489D1*
X2062161Y1405216D1*
X2061589Y1397943D1*
X2059886Y1390849D1*
X2057094Y1384109D1*
X2053282Y1377889D1*
X2048650Y1372456D1*
X2048657Y1208535D1*
X2055622Y1210672D1*
X2064305Y1212047D1*
X2073095D1*
X2081778Y1210672D1*
X2090138Y1207955D1*
X2097970Y1203965D1*
X2105082Y1198798D1*
X2111298Y1192582D1*
X2116465Y1185470D1*
X2118786Y1181632D1*
X2123379Y1189127D1*
X2129088Y1195812D1*
X2135772Y1201521D1*
X2143268Y1206114D1*
X2151389Y1209478D1*
X2159937Y1211530D1*
X2168700Y1212220D1*
X2177463Y1211530D1*
X2186011Y1209478D1*
X2194132Y1206114D1*
X2201628Y1201521D1*
X2208312Y1195812D1*
X2214021Y1189127D1*
X2218693Y1181461D1*
X2223379Y1189127D1*
X2229088Y1195812D1*
X2235772Y1201521D1*
X2243268Y1206114D1*
X2251389Y1209478D1*
X2259937Y1211530D1*
X2268700Y1212220D1*
X2277463Y1211530D1*
X2284738Y1209837D1*
X2284728Y1702487D1*
X2277463Y1700870D1*
X2268700Y1700180D1*
X2259937Y1700870D1*
X2251389Y1702922D1*
X2243268Y1706286D1*
X2235772Y1710879D1*
X2229088Y1716588D1*
X2223379Y1723272D1*
X2218707Y1730939D1*
X2214021Y1723272D1*
X2208312Y1716588D1*
X2201628Y1710879D1*
X2194132Y1706286D1*
X2186011Y1702922D1*
X2177463Y1700870D1*
X2168700Y1700180D1*
X2159937Y1700870D1*
X2151389Y1702922D1*
X2143268Y1706286D1*
X2135772Y1710879D1*
X2129088Y1716588D1*
X2123379Y1723272D1*
X2118707Y1730939D1*
X2114021Y1723272D1*
X2108312Y1716588D1*
X2101628Y1710879D1*
X2094132Y1706286D1*
X2086011Y1702922D1*
X2077463Y1700870D1*
X2068700Y1700180D1*
X2059937Y1700870D1*
X2051389Y1702922D1*
X2043268Y1706286D1*
X2035772Y1710879D1*
X2029088Y1716588D1*
X2023379Y1723272D1*
X2018786Y1730767D1*
X2015422Y1738889D1*
X2013370Y1747436D1*
X2012680Y1756200D1*
X2013370Y1764963D1*
X2015422Y1773511D1*
X2018786Y1781632D1*
X2023379Y1789127D1*
X2029088Y1795812D1*
X2035772Y1801521D1*
X2043268Y1806114D1*
X2051389Y1809478D1*
X2059937Y1811530D1*
X2068700Y1812220D1*
X2077463Y1811530D1*
X2086011Y1809478D1*
X2094132Y1806114D1*
X2101628Y1801521D1*
X2108312Y1795812D1*
X2114021Y1789127D1*
X2118693Y1781461D1*
X2123379Y1789127D1*
X2129088Y1795812D1*
X2135772Y1801521D1*
X2143268Y1806114D1*
X2151389Y1809478D1*
X2159937Y1811530D1*
X2168700Y1812220D1*
X2177463Y1811530D1*
X2186011Y1809478D1*
X2194132Y1806114D1*
X2201628Y1801521D1*
X2208312Y1795812D1*
X2214021Y1789127D1*
X2218693Y1781461D1*
X2223379Y1789127D1*
X2229088Y1795812D1*
X2235772Y1801521D1*
X2243268Y1806114D1*
X2251389Y1809478D1*
X2259937Y1811530D1*
X2268700Y1812220D1*
X2277463Y1811530D1*
X2284738Y1809837D1*
X2284728Y1844876D1*
X2255999Y1873576D1*
X1774733Y1873555D1*
X1774720Y1578549D2*
Y1525180D1*
X1751718D1*
X1751688Y1495832D1*
X1758342Y1489195D1*
X1798403Y1489188D1*
X1804088Y1495812D1*
X1810772Y1501521D1*
X1818439Y1506193D1*
X1810772Y1510879D1*
X1804088Y1516588D1*
X1798379Y1523272D1*
X1793786Y1530768D1*
X1790422Y1538889D1*
X1788370Y1547437D1*
X1787680Y1556200D1*
X1788360Y1564878D1*
X1774726Y1578522D1*
X1662670Y1296559D2*
X1658312Y1291588D1*
X1651628Y1285879D1*
X1644132Y1281286D1*
X1636011Y1277922D1*
X1627463Y1275870D1*
X1618700Y1275180D1*
X1609937Y1275870D1*
X1601389Y1277922D1*
X1593268Y1281286D1*
X1585772Y1285879D1*
X1579088Y1291588D1*
X1573379Y1298272D1*
X1568786Y1305768D1*
X1565422Y1313889D1*
X1563370Y1322437D1*
X1562680Y1331200D1*
X1563370Y1339963D1*
X1565422Y1348511D1*
X1568786Y1356632D1*
X1573379Y1364128D1*
X1579088Y1370812D1*
X1580615Y1372223D1*
X1281371Y1372228D1*
X1271327Y1362174D1*
X1278417Y1361370D1*
X1285551Y1359625D1*
X1292395Y1356962D1*
X1298831Y1353426D1*
X1304750Y1349079D1*
X1310049Y1343995D1*
X1314638Y1338261D1*
X1318437Y1331976D1*
X1321382Y1325249D1*
X1323421Y1318193D1*
X1324519Y1310932D1*
X1324690Y1304363D1*
X1323968Y1297055D1*
X1322297Y1289904D1*
X1319705Y1283033D1*
X1316236Y1276560D1*
X1311950Y1270596D1*
X1306921Y1265244D1*
X1301235Y1260597D1*
X1294990Y1256732D1*
X1288293Y1253719D1*
X1281260Y1251606D1*
X1274010Y1250433D1*
X1266670Y1250217D1*
X1259364Y1250964D1*
X1252219Y1252660D1*
X1245357Y1255276D1*
X1238896Y1258767D1*
X1232947Y1263073D1*
X1227613Y1268121D1*
X1222985Y1273823D1*
X1219142Y1280081D1*
X1218614Y1280768D1*
X1214021Y1273272D1*
X1208312Y1266588D1*
X1201628Y1260879D1*
X1194132Y1256286D1*
X1186011Y1252922D1*
X1177463Y1250870D1*
X1168700Y1250180D1*
X1159937Y1250870D1*
X1151389Y1252922D1*
X1143268Y1256286D1*
X1135772Y1260879D1*
X1129088Y1266588D1*
X1123379Y1273272D1*
X1118707Y1280939D1*
X1114021Y1273272D1*
X1108312Y1266588D1*
X1101695Y1260932D1*
X1101688Y1219899D1*
X1110016Y1211536D1*
X1118700Y1212220D1*
X1127463Y1211530D1*
X1136011Y1209478D1*
X1144132Y1206114D1*
X1151628Y1201521D1*
X1158312Y1195812D1*
X1164021Y1189128D1*
X1168693Y1181461D1*
X1173379Y1189128D1*
X1179088Y1195812D1*
X1185772Y1201521D1*
X1193268Y1206114D1*
X1201389Y1209478D1*
X1209937Y1211530D1*
X1218700Y1212220D1*
X1227463Y1211530D1*
X1236011Y1209478D1*
X1244132Y1206114D1*
X1251628Y1201521D1*
X1258312Y1195812D1*
X1261239Y1192645D1*
X1266971Y1200380D1*
X1274520Y1207929D1*
X1283156Y1214203D1*
X1292667Y1219049D1*
X1302819Y1222348D1*
X1313363Y1224018D1*
X1324037D1*
X1334581Y1222348D1*
X1344733Y1219049D1*
X1354244Y1214203D1*
X1362667Y1208096D1*
X1362680Y1212220D1*
X1474720D1*
Y1100180D1*
X1362680D1*
Y1104307D1*
X1354244Y1098197D1*
X1344733Y1093351D1*
X1334581Y1090052D1*
X1324037Y1088382D1*
X1313363D1*
X1302819Y1090052D1*
X1292667Y1093351D1*
X1283156Y1098197D1*
X1274520Y1104471D1*
X1266971Y1112020D1*
X1261265Y1119806D1*
X1255082Y1113602D1*
X1247970Y1108435D1*
X1240138Y1104445D1*
X1231778Y1101728D1*
X1223095Y1100353D1*
X1214305D1*
X1205622Y1101728D1*
X1197262Y1104445D1*
X1189430Y1108435D1*
X1182318Y1113602D1*
X1176102Y1119818D1*
X1170935Y1126930D1*
X1168614Y1130768D1*
X1164021Y1123272D1*
X1158312Y1116588D1*
X1151628Y1110879D1*
X1144132Y1106286D1*
X1136011Y1102922D1*
X1127463Y1100870D1*
X1118700Y1100180D1*
X1109937Y1100870D1*
X1101389Y1102922D1*
X1093268Y1106286D1*
X1085772Y1110879D1*
X1079088Y1116588D1*
X1073379Y1123272D1*
X1068707Y1130939D1*
X1064021Y1123272D1*
X1058312Y1116588D1*
X1051628Y1110879D1*
X1044132Y1106286D1*
X1036011Y1102922D1*
X1027463Y1100870D1*
X1018700Y1100180D1*
X1009937Y1100870D1*
X1001389Y1102922D1*
X993268Y1106286D1*
X985772Y1110879D1*
X979088Y1116588D1*
X973379Y1123272D1*
X968707Y1130939D1*
X964021Y1123272D1*
X958312Y1116588D1*
X951628Y1110879D1*
X944132Y1106286D1*
X936011Y1102922D1*
X927463Y1100870D1*
X918700Y1100180D1*
X909937Y1100870D1*
X901703Y1102833D1*
X901688Y1032511D1*
X908342Y1025833D1*
X1609937Y1025870D1*
X1601389Y1027922D1*
X1593268Y1031286D1*
X1585772Y1035879D1*
X1579088Y1041588D1*
X1573379Y1048272D1*
X1568786Y1055768D1*
X1565422Y1063889D1*
X1563370Y1072437D1*
X1562680Y1081200D1*
X1563370Y1089963D1*
X1565422Y1098511D1*
X1568786Y1106632D1*
X1573379Y1114128D1*
X1579088Y1120812D1*
X1585772Y1126521D1*
X1593268Y1131114D1*
X1601389Y1134478D1*
X1609937Y1136530D1*
X1618700Y1137220D1*
X1627463Y1136530D1*
X1636011Y1134478D1*
X1644132Y1131114D1*
X1651628Y1126521D1*
X1658312Y1120812D1*
X1662670Y1115841D1*
X1662680Y1137220D1*
X1728097D1*
X1805776Y1214928D1*
X1801102Y1219818D1*
X1795935Y1226930D1*
X1791945Y1234762D1*
X1789228Y1243122D1*
X1787853Y1251805D1*
Y1260595D1*
X1789228Y1269278D1*
X1791945Y1277638D1*
X1795935Y1285470D1*
X1801102Y1292582D1*
X1807318Y1298798D1*
X1814430Y1303965D1*
X1818268Y1306286D1*
X1810772Y1310879D1*
X1804088Y1316588D1*
X1802000Y1318847D1*
X1789140Y1306116D1*
X1784952Y1303073D1*
X1780340Y1300723D1*
X1775407Y1299121D1*
X1774720Y1295356D1*
Y1275180D1*
X1662680D1*
Y1296531D1*
X1662670Y1046559D2*
X1658312Y1041588D1*
X1651628Y1035879D1*
X1644132Y1031286D1*
X1636011Y1027922D1*
X1627105Y1025828D1*
X1662713Y1025826D1*
X1662680Y1046531D1*
X1774720Y1090534D2*
Y1038789D1*
X1782083Y1037055D1*
X1788823Y1034263D1*
X1795043Y1030451D1*
X1800476Y1025819D1*
X1988655Y1025826D1*
X1986276Y1029830D1*
X1984295Y1034612D1*
X1983087Y1039645D1*
X1982681Y1044816D1*
Y1372249D1*
X1897359Y1372228D1*
X1899030Y1364963D1*
X1899720Y1356200D1*
X1899030Y1347437D1*
X1896978Y1338889D1*
X1893614Y1330768D1*
X1889021Y1323272D1*
X1883312Y1316588D1*
X1876628Y1310879D1*
X1868961Y1306207D1*
X1876628Y1301521D1*
X1883312Y1295812D1*
X1889021Y1289128D1*
X1893614Y1281632D1*
X1896978Y1273511D1*
X1899030Y1264963D1*
X1899720Y1256200D1*
X1899030Y1247437D1*
X1896978Y1238889D1*
X1893614Y1230768D1*
X1889021Y1223272D1*
X1883312Y1216588D1*
X1876695Y1210932D1*
X1876586Y1203612D1*
X1875777Y1198499D1*
X1874177Y1193576D1*
X1871827Y1188964D1*
X1868784Y1184776D1*
X1821556Y1137404D1*
X1774741Y1090589D1*
X2850682Y1212219D2*
X2878097D1*
X3285688Y1619840D1*
X3285712Y1753504D1*
X3263156Y1731115D1*
X3258968Y1728073D1*
X3254356Y1725723D1*
X3249433Y1724123D1*
X3244320Y1723313D1*
X3177427Y1723212D1*
X2914002D1*
X2908312Y1716588D1*
X2901628Y1710879D1*
X2894132Y1706286D1*
X2886011Y1702922D1*
X2877463Y1700870D1*
X2868700Y1700180D1*
X2859937Y1700870D1*
X2851389Y1702922D1*
X2850696Y1703178D1*
X2850704Y1212226D1*
X2924720Y1165534D2*
Y1140200D1*
X3579021Y1140168D1*
X3585705Y1146822D1*
X3585712Y1973392D1*
X3579088Y1979088D1*
X3573379Y1985772D1*
X3568707Y1993439D1*
X3564021Y1985772D1*
X3558312Y1979088D1*
X3551628Y1973379D1*
X3544132Y1968786D1*
X3536011Y1965422D1*
X3527463Y1963370D1*
X3518700Y1962680D1*
X3509937Y1963370D1*
X3501389Y1965422D1*
X3493268Y1968786D1*
X3485772Y1973379D1*
X3479088Y1979088D1*
X3473379Y1985772D1*
X3468707Y1993439D1*
X3464021Y1985772D1*
X3458312Y1979088D1*
X3451628Y1973379D1*
X3444132Y1968786D1*
X3436011Y1965422D1*
X3427463Y1963370D1*
X3418700Y1962680D1*
X3409937Y1963370D1*
X3401389Y1965422D1*
X3393268Y1968786D1*
X3385772Y1973379D1*
X3379088Y1979088D1*
X3373379Y1985772D1*
X3368707Y1993439D1*
X3364021Y1985772D1*
X3358312Y1979088D1*
X3351695Y1973432D1*
X3351587Y1603612D1*
X3350777Y1598499D1*
X3349177Y1593576D1*
X3346827Y1588964D1*
X3343784Y1584776D1*
X3296556Y1537404D1*
X2924701Y1165548D1*
X2750696Y1209222D2*
X2755622Y1210672D1*
X2764305Y1212047D1*
X2773095D1*
X2777378Y1211540D1*
X2784729Y1218881D1*
X2784728Y1702535D1*
X2777463Y1700870D1*
X2768700Y1700180D1*
X2759937Y1700870D1*
X2751389Y1702922D1*
X2750696Y1703178D1*
X2750704Y1209269D1*
X2618707Y1181461D2*
X2623379Y1189127D1*
X2629088Y1195812D1*
X2635772Y1201521D1*
X2643268Y1206114D1*
X2651389Y1209478D1*
X2659937Y1211530D1*
X2668700Y1212220D1*
X2677378Y1211540D1*
X2684729Y1218881D1*
X2684728Y1702535D1*
X2677463Y1700870D1*
X2668700Y1700180D1*
X2659937Y1700870D1*
X2651389Y1702922D1*
X2643268Y1706286D1*
X2635772Y1710879D1*
X2629088Y1716588D1*
X2623379Y1723272D1*
X2618707Y1730939D1*
X2614021Y1723272D1*
X2608312Y1716588D1*
X2601628Y1710879D1*
X2594132Y1706286D1*
X2586011Y1702922D1*
X2577463Y1700870D1*
X2568700Y1700180D1*
X2559937Y1700870D1*
X2551389Y1702922D1*
X2550696Y1703178D1*
X2550704Y1209216D1*
X2555622Y1210672D1*
X2564305Y1212047D1*
X2573095D1*
X2581778Y1210672D1*
X2590138Y1207955D1*
X2597970Y1203965D1*
X2605082Y1198798D1*
X2611298Y1192582D1*
X2616465Y1185470D1*
X2618693Y1181461D1*
X2577378Y1100860D2*
X2568700Y1100180D1*
X2559937Y1100870D1*
X2551389Y1102922D1*
X2550696Y1103178D1*
X2550704Y1086276D1*
X2557358Y1079648D1*
X2599572Y1079641D1*
X2594394Y1083854D1*
X2577368Y1100880D1*
X2450696Y1209222D2*
X2455622Y1210672D1*
X2464305Y1212047D1*
X2473095D1*
X2481778Y1210672D1*
X2484738Y1209837D1*
X2484728Y1702512D1*
X2477654Y1700900D1*
X2470344Y1700204D1*
X2463005Y1700470D1*
X2455763Y1701694D1*
X2450711Y1703151D1*
X2450704Y1209238D1*
X2450710Y1809246D2*
X2458317Y1811249D1*
X2465607Y1812134D1*
X2471740Y1812130D1*
X2473499Y1819583D1*
X2476291Y1826323D1*
X2480103Y1832543D1*
X2484841Y1838091D1*
X2490389Y1842829D1*
X2496609Y1846641D1*
X2503349Y1849433D1*
X2510443Y1851136D1*
X2517716Y1851708D1*
X2524989Y1851136D1*
X2532083Y1849433D1*
X2535702Y1848080D1*
X2535813Y1920304D1*
X2536623Y1925417D1*
X2538223Y1930340D1*
X2540573Y1934952D1*
X2543616Y1939140D1*
X2571358Y1967026D1*
X2575294Y1970388D1*
X2579708Y1973093D1*
X2582069Y1974181D1*
X2582318Y1976102D1*
X2576102Y1982318D1*
X2570935Y1989430D1*
X2568614Y1993268D1*
X2564021Y1985772D1*
X2558312Y1979088D1*
X2551628Y1973379D1*
X2544132Y1968786D1*
X2536011Y1965422D1*
X2527463Y1963370D1*
X2518700Y1962680D1*
X2509937Y1963370D1*
X2501389Y1965422D1*
X2493268Y1968786D1*
X2490194Y1970507D1*
X2450723Y1931039D1*
X2450704Y1809221D1*
X2350696Y1209222D2*
X2355622Y1210672D1*
X2364305Y1212047D1*
X2373095D1*
X2381778Y1210672D1*
X2384738Y1209837D1*
X2384728Y1702516D1*
X2377654Y1700900D1*
X2370344Y1700204D1*
X2363005Y1700470D1*
X2355763Y1701694D1*
X2350711Y1703151D1*
X2350704Y1209258D1*
X2295946Y1107302D2*
X2290138Y1104444D1*
X2281778Y1101728D1*
X2273095Y1100353D1*
X2264305D1*
X2255622Y1101728D1*
X2247262Y1104444D1*
X2239430Y1108435D1*
X2232318Y1113602D1*
X2226102Y1119818D1*
X2220935Y1126930D1*
X2218614Y1130767D1*
X2214021Y1123272D1*
X2208312Y1116588D1*
X2201628Y1110879D1*
X2194132Y1106286D1*
X2186011Y1102922D1*
X2177463Y1100870D1*
X2168700Y1100180D1*
X2159937Y1100870D1*
X2151389Y1102922D1*
X2143268Y1106286D1*
X2135772Y1110879D1*
X2129088Y1116588D1*
X2123379Y1123272D1*
X2118707Y1130939D1*
X2114021Y1123272D1*
X2108312Y1116588D1*
X2101628Y1110879D1*
X2094132Y1106286D1*
X2086011Y1102922D1*
X2077463Y1100870D1*
X2068700Y1100180D1*
X2059937Y1100870D1*
X2051389Y1102922D1*
X2048665Y1103927D1*
X2048657Y1058467D1*
X2055311Y1051817D1*
X2244320Y1051709D1*
X2249433Y1050899D1*
X2254356Y1049299D1*
X2258968Y1046949D1*
X2263156Y1043906D1*
X2291042Y1016164D1*
X2294404Y1012228D1*
X2297109Y1007814D1*
X2299090Y1003032D1*
X2300298Y997999D1*
X2300704Y992838D1*
Y946727D1*
X2305622Y948172D1*
X2314305Y949547D1*
X2323095D1*
X2331778Y948172D1*
X2334738Y947337D1*
X2334728Y1068512D1*
X2295965Y1107279D1*
X2350710Y1809246D2*
X2358317Y1811249D1*
X2365607Y1812134D1*
X2372951Y1812058D1*
X2380221Y1811022D1*
X2384732Y1809869D1*
X2384728Y1825169D1*
X2378569Y1823244D1*
X2371364Y1822103D1*
X2364068D1*
X2356863Y1823244D1*
X2350714Y1825208D1*
X2350704Y1809242D1*
X2601695Y1801468D2*
X2608312Y1795812D1*
X2614021Y1789127D1*
X2618693Y1781461D1*
X2623379Y1789127D1*
X2629088Y1795812D1*
X2635772Y1801521D1*
X2643268Y1806114D1*
X2651389Y1809478D1*
X2659937Y1811530D1*
X2668700Y1812220D1*
X2677463Y1811530D1*
X2684738Y1809837D1*
X2684830Y1868335D1*
X2685639Y1873448D1*
X2687239Y1878371D1*
X2689589Y1882983D1*
X2692632Y1887171D1*
X2716034Y1910717D1*
X2608362Y1910712D1*
X2601695Y1904058D1*
X2601688Y1801487D1*
X2750696Y1809222D2*
X2755622Y1810672D1*
X2764305Y1812047D1*
X2773095D1*
X2781778Y1810672D1*
X2790138Y1807955D1*
X2796576Y1804745D1*
X2822276Y1830300D1*
X2826464Y1833343D1*
X2831076Y1835693D1*
X2835999Y1837293D1*
X2841112Y1838102D1*
X2908004Y1838204D1*
X2991579D1*
X3116093Y1962745D1*
X3110022Y1963360D1*
X3013155Y1866647D1*
X3008967Y1863604D1*
X3004355Y1861254D1*
X2999432Y1859654D1*
X2994319Y1858844D1*
X2927427Y1858743D1*
X2757371D1*
X2750711Y1852089D1*
X2750704Y1809229D1*
X1235697Y1702833D2*
X1227463Y1700870D1*
X1218700Y1700180D1*
X1209937Y1700870D1*
X1201389Y1702922D1*
X1193268Y1706286D1*
X1185772Y1710879D1*
X1179088Y1716588D1*
X1173379Y1723272D1*
X1168707Y1730939D1*
X1164021Y1723272D1*
X1158312Y1716588D1*
X1151628Y1710879D1*
X1144132Y1706286D1*
X1136011Y1702922D1*
X1127463Y1700870D1*
X1118700Y1700180D1*
X1109937Y1700870D1*
X1101389Y1702922D1*
X1093268Y1706286D1*
X1085772Y1710879D1*
X1079088Y1716588D1*
X1073379Y1723272D1*
X1068707Y1730939D1*
X1064021Y1723272D1*
X1058312Y1716588D1*
X1051628Y1710879D1*
X1044132Y1706286D1*
X1036011Y1702922D1*
X1027463Y1700870D1*
X1018700Y1700180D1*
X1009937Y1700870D1*
X1001703Y1702833D1*
X1001688Y1651491D1*
X1008312Y1645812D1*
X1014021Y1639128D1*
X1018693Y1631461D1*
X1022378Y1637704D1*
X1026897Y1643493D1*
X1032135Y1648640D1*
X1038001Y1653059D1*
X1044394Y1656672D1*
X1051205Y1659418D1*
X1058317Y1661249D1*
X1065607Y1662134D1*
X1072951Y1662058D1*
X1080221Y1661022D1*
X1087294Y1659044D1*
X1094046Y1656158D1*
X1100364Y1652413D1*
X1106137Y1647874D1*
X1111266Y1642618D1*
X1115665Y1636737D1*
X1118696Y1631456D1*
X1123379Y1639128D1*
X1129088Y1645812D1*
X1135772Y1651521D1*
X1143268Y1656114D1*
X1151389Y1659478D1*
X1159937Y1661530D1*
X1168700Y1662220D1*
X1177463Y1661530D1*
X1186011Y1659478D1*
X1194132Y1656114D1*
X1201628Y1651521D1*
X1208312Y1645812D1*
X1214021Y1639128D1*
X1218693Y1631461D1*
X1223379Y1639128D1*
X1229088Y1645812D1*
X1235705Y1651468D1*
X1235712Y1702836D1*
X1168707Y1781461D2*
X1173379Y1789128D1*
X1179088Y1795812D1*
X1185772Y1801521D1*
X1193268Y1806114D1*
X1201389Y1809478D1*
X1209937Y1811530D1*
X1218700Y1812220D1*
X1227463Y1811530D1*
X1235697Y1809567D1*
X1235814Y1883146D1*
X1236623Y1888259D1*
X1238223Y1893182D1*
X1240573Y1897794D1*
X1243616Y1901982D1*
X1271359Y1929869D1*
X1275295Y1933231D1*
X1279709Y1935936D1*
X1284491Y1937917D1*
X1289524Y1939125D1*
X1294685Y1939531D1*
X2236681D1*
X2236696Y1965644D1*
X2227463Y1963370D1*
X2218700Y1962680D1*
X2209937Y1963370D1*
X2201389Y1965422D1*
X2193268Y1968786D1*
X2185772Y1973379D1*
X2179088Y1979088D1*
X2173379Y1985772D1*
X2168707Y1993439D1*
X2164021Y1985772D1*
X2158312Y1979088D1*
X2151628Y1973379D1*
X2144132Y1968786D1*
X2136011Y1965422D1*
X2127463Y1963370D1*
X2118700Y1962680D1*
X2109937Y1963370D1*
X2101389Y1965422D1*
X2093268Y1968786D1*
X2085772Y1973379D1*
X2079088Y1979088D1*
X2074730Y1984059D1*
X2074720Y1962680D1*
X1962681D1*
Y2074719D1*
X2074720D1*
Y2053368D1*
X2079088Y2058312D1*
X2085772Y2064021D1*
X2093268Y2068614D1*
X2101389Y2071978D1*
X2107392Y2073524D1*
X2126804Y2092800D1*
X2132363Y2097910D1*
X2137522Y2103069D1*
X2143424Y2107357D1*
X2149924Y2110669D1*
X2156863Y2112924D1*
X2164068Y2114065D1*
X2171364D1*
X2178569Y2112924D1*
X2185508Y2110669D1*
X2192008Y2107357D1*
X2197910Y2103069D1*
X2203069Y2097910D1*
X2207357Y2092008D1*
X2210669Y2085508D1*
X2212924Y2078569D1*
X2213694Y2074493D1*
X2223095Y2074547D1*
X2231778Y2073172D1*
X2236696Y2071897D1*
Y2265667D1*
X2231778Y2264228D1*
X2223095Y2262853D1*
X2214305D1*
X2210022Y2263360D1*
X2113155Y2166647D1*
X2108967Y2163604D1*
X2104355Y2161254D1*
X2099432Y2159654D1*
X2094319Y2158845D1*
X2027427Y2158743D1*
X1008352D1*
X1001695Y2152089D1*
X1001688Y1809596D1*
X1009937Y1811530D1*
X1018700Y1812220D1*
X1027463Y1811530D1*
X1036011Y1809478D1*
X1044132Y1806114D1*
X1051628Y1801521D1*
X1058312Y1795812D1*
X1064021Y1789128D1*
X1068693Y1781461D1*
X1073379Y1789128D1*
X1079088Y1795812D1*
X1085772Y1801521D1*
X1093268Y1806114D1*
X1101389Y1809478D1*
X1109937Y1811530D1*
X1118700Y1812220D1*
X1127463Y1811530D1*
X1136011Y1809478D1*
X1144132Y1806114D1*
X1151628Y1801521D1*
X1158312Y1795812D1*
X1164021Y1789128D1*
X1168693Y1781461D1*
X935697Y1702833D2*
X927463Y1700870D1*
X918700Y1700180D1*
X909937Y1700870D1*
X901389Y1702922D1*
X893268Y1706286D1*
X885772Y1710879D1*
X879088Y1716588D1*
X876161Y1719755D1*
X870429Y1712020D1*
X862880Y1704471D1*
X854244Y1698197D1*
X844733Y1693351D1*
X834581Y1690052D1*
X824037Y1688382D1*
X813363D1*
X802819Y1690052D1*
X792667Y1693351D1*
X783156Y1698197D1*
X774520Y1704471D1*
X766971Y1712020D1*
X761265Y1719806D1*
X757694Y1716017D1*
X757572Y1696153D1*
X756615Y1690109D1*
X754724Y1684290D1*
X751946Y1678839D1*
X748350Y1673889D1*
X713920Y1639289D1*
X718693Y1631461D1*
X722378Y1637704D1*
X726897Y1643493D1*
X732135Y1648640D1*
X738001Y1653059D1*
X744394Y1656672D1*
X751205Y1659418D1*
X758317Y1661249D1*
X765607Y1662134D1*
X772951Y1662058D1*
X780221Y1661022D1*
X787294Y1659044D1*
X794046Y1656158D1*
X800364Y1652413D1*
X806137Y1647874D1*
X811266Y1642618D1*
X815665Y1636737D1*
X818696Y1631456D1*
X823379Y1639128D1*
X829088Y1645812D1*
X835772Y1651521D1*
X843268Y1656114D1*
X851389Y1659478D1*
X859937Y1661530D1*
X868700Y1662220D1*
X877463Y1661530D1*
X886011Y1659478D1*
X894132Y1656114D1*
X901628Y1651521D1*
X908312Y1645812D1*
X914021Y1639128D1*
X918693Y1631461D1*
X923379Y1639128D1*
X929088Y1645812D1*
X935705Y1651468D1*
X935712Y1702836D1*
X968707Y1181461D2*
X973379Y1189128D1*
X979088Y1195812D1*
X985705Y1201468D1*
X985712Y1252836D1*
X979463Y1251224D1*
X972179Y1250288D1*
X964835Y1250314D1*
X957558Y1251300D1*
X951693Y1252831D1*
X951688Y1201485D1*
X958312Y1195812D1*
X964021Y1189128D1*
X968693Y1181461D1*
X2862680Y1976711D2*
Y2060680D1*
X2755787Y2060712D1*
X2761266Y2055118D1*
X2765665Y2049237D1*
X2769256Y2042831D1*
X2771978Y2036011D1*
X2773785Y2028893D1*
X2774645Y2021599D1*
X2774599Y2015028D1*
X2773639Y2007747D1*
X2771734Y2000655D1*
X2768918Y1993873D1*
X2765238Y1987517D1*
X2760759Y1981697D1*
X2755755Y1976691D1*
X2862703Y1976688D1*
X3016142Y1962781D2*
X3010022Y1963360D1*
X2971360Y1924707D1*
X2978060Y1924719D1*
X3016082Y1962735D1*
X3234738Y1965063D2*
X3227463Y1963370D1*
X3218700Y1962680D1*
X3210022Y1963360D1*
X3035863Y1789210D1*
X3228080Y1789188D1*
X3234721Y1795842D1*
X3234728Y1965014D1*
X3516142Y2262781D2*
X3510022Y2263360D1*
X3373490Y2126688D1*
X3380057D1*
X3516096Y2262749D1*
X3416142Y2262781D2*
X3409937Y2263370D1*
X3401389Y2265422D1*
X3393268Y2268786D1*
X3385772Y2273379D1*
X3379088Y2279088D1*
X3373379Y2285772D1*
X3368707Y2293439D1*
X3364021Y2285772D1*
X3358312Y2279088D1*
X3351628Y2273379D1*
X3344132Y2268786D1*
X3336011Y2265422D1*
X3327463Y2263370D1*
X3318700Y2262680D1*
X3309937Y2263370D1*
X3301389Y2265422D1*
X3293268Y2268786D1*
X3285772Y2273379D1*
X3279088Y2279088D1*
X3273379Y2285772D1*
X3268707Y2293439D1*
X3264021Y2285772D1*
X3258312Y2279088D1*
X3251628Y2273379D1*
X3244132Y2268786D1*
X3236011Y2265422D1*
X3227463Y2263370D1*
X3218700Y2262680D1*
X3209937Y2263370D1*
X3201389Y2265422D1*
X3193268Y2268786D1*
X3185772Y2273379D1*
X3179088Y2279088D1*
X3173379Y2285772D1*
X3168707Y2293439D1*
X3164021Y2285772D1*
X3158312Y2279088D1*
X3151628Y2273379D1*
X3144132Y2268786D1*
X3136011Y2265422D1*
X3127463Y2263370D1*
X3118700Y2262680D1*
X3109937Y2263370D1*
X3101389Y2265422D1*
X3093268Y2268786D1*
X3085772Y2273379D1*
X3079088Y2279088D1*
X3073379Y2285772D1*
X3068707Y2293439D1*
X3064021Y2285772D1*
X3058312Y2279088D1*
X3051628Y2273379D1*
X3044132Y2268786D1*
X3036011Y2265422D1*
X3027463Y2263370D1*
X3018700Y2262680D1*
X3009937Y2263370D1*
X3001389Y2265422D1*
X2993268Y2268786D1*
X2985772Y2273379D1*
X2979088Y2279088D1*
X2973379Y2285772D1*
X2968707Y2293439D1*
X2964021Y2285772D1*
X2958312Y2279088D1*
X2951628Y2273379D1*
X2944132Y2268786D1*
X2936011Y2265422D1*
X2927463Y2263370D1*
X2918700Y2262680D1*
X2909937Y2263370D1*
X2901389Y2265422D1*
X2893268Y2268786D1*
X2885772Y2273379D1*
X2879088Y2279088D1*
X2873379Y2285772D1*
X2868786Y2293268D1*
X2865422Y2301389D1*
X2863370Y2309937D1*
X2862680Y2318700D1*
X2863360Y2327378D1*
X2856019Y2334729D1*
X2772402Y2334728D1*
X2774030Y2327463D1*
X2774720Y2318700D1*
X2774030Y2309937D1*
X2771978Y2301389D1*
X2768614Y2293268D1*
X2764021Y2285772D1*
X2758312Y2279088D1*
X2751628Y2273379D1*
X2744132Y2268786D1*
X2736011Y2265422D1*
X2727463Y2263370D1*
X2718700Y2262680D1*
X2710022Y2263360D1*
X2521298Y2074646D1*
X2527378Y2074040D1*
X2598260Y2144768D1*
X2602448Y2147811D1*
X2607060Y2150161D1*
X2611983Y2151761D1*
X2617096Y2152571D1*
X2683988Y2152672D1*
X3306041D1*
X3416097Y2262750D1*
X3210022Y949040D2*
X3218700Y949720D1*
X3227463Y949030D1*
X3234738Y947337D1*
X3234728Y1007016D1*
X3228074Y1013658D1*
X2541112Y1013767D1*
X2535999Y1014576D1*
X2531076Y1016176D1*
X2526464Y1018526D1*
X2522276Y1021569D1*
X2501673Y1042027D1*
X2501688Y1008321D1*
X2508342Y1001695D1*
X3146288Y1001587D1*
X3151401Y1000777D1*
X3156324Y999177D1*
X3160936Y996827D1*
X3165124Y993784D1*
X3210035Y949017D1*
X3127378Y838360D2*
X3118700Y837680D1*
X3109937Y838370D1*
X3101389Y840422D1*
X3093268Y843786D1*
X3085772Y848379D1*
X3079088Y854088D1*
X3073379Y860772D1*
X3068707Y868439D1*
X3064021Y860772D1*
X3058312Y854088D1*
X3051628Y848379D1*
X3044132Y843786D1*
X3036011Y840422D1*
X3027463Y838370D1*
X3018700Y837680D1*
X3009937Y838370D1*
X3001389Y840422D1*
X2993268Y843786D1*
X2985772Y848379D1*
X2979088Y854088D1*
X2973379Y860772D1*
X2968707Y868439D1*
X2964021Y860772D1*
X2958312Y854088D1*
X2951628Y848379D1*
X2944132Y843786D1*
X2936011Y840422D1*
X2927463Y838370D1*
X2918700Y837680D1*
X2909937Y838370D1*
X2901389Y840422D1*
X2893268Y843786D1*
X2885772Y848379D1*
X2879088Y854088D1*
X2873379Y860772D1*
X2868786Y868268D1*
X2865422Y876389D1*
X2863370Y884937D1*
X2862680Y893700D1*
X2863370Y902463D1*
X2865422Y911011D1*
X2868786Y919132D1*
X2873379Y926628D1*
X2879088Y933312D1*
X2881675Y935703D1*
X2774703Y935712D1*
X2774720Y884303D1*
X2851718Y807335D1*
X3158373Y807353D1*
X3127394Y838354D1*
X2863360Y585022D2*
X2862680Y593700D1*
X2863370Y602463D1*
X2865422Y611011D1*
X2868786Y619132D1*
X2873379Y626628D1*
X2879088Y633312D1*
X2881675Y635703D1*
X2755743Y635712D1*
X2761298Y630082D1*
X2766465Y622970D1*
X2770455Y615138D1*
X2773172Y606778D1*
X2774547Y598095D1*
Y589305D1*
X2773172Y580622D1*
X2770687Y572891D1*
X2851206Y572881D1*
X2863363Y585015D1*
X3000470Y646639D2*
X3005622Y648172D1*
X3014305Y649547D1*
X3023095D1*
X3031778Y648172D1*
X3040138Y645455D1*
X3047970Y641465D1*
X3055082Y636298D1*
X3061298Y630082D1*
X3066465Y622970D1*
X3068786Y619132D1*
X3073379Y626628D1*
X3079088Y633312D1*
X3085772Y639021D1*
X3093268Y643614D1*
X3101389Y646978D1*
X3109937Y649030D1*
X3118700Y649720D1*
X3127463Y649030D1*
X3136011Y646978D1*
X3144132Y643614D1*
X3151628Y639021D1*
X3158312Y633312D1*
X3164021Y626628D1*
X3168693Y618961D1*
X3173379Y626628D1*
X3179088Y633312D1*
X3185772Y639021D1*
X3193268Y643614D1*
X3201389Y646978D1*
X3209937Y649030D1*
X3218700Y649720D1*
X3227463Y649030D1*
X3236011Y646978D1*
X3244132Y643614D1*
X3251628Y639021D1*
X3258312Y633312D1*
X3264021Y626628D1*
X3268693Y618961D1*
X3273379Y626628D1*
X3279088Y633312D1*
X3285772Y639021D1*
X3293268Y643614D1*
X3301389Y646978D1*
X3309937Y649030D1*
X3316142Y649619D1*
X3304053Y661695D1*
X2994722Y661696D1*
X2997109Y657691D1*
X2999090Y652909D1*
X3000299Y647865D1*
X3410022Y649040D2*
X3416142Y649619D1*
X3324379Y741369D1*
X2835447Y741478D1*
X2830334Y742288D1*
X2825411Y743888D1*
X2820799Y746238D1*
X2816611Y749281D1*
X2769239Y796509D1*
X2728057Y837691D1*
X2726471Y832582D1*
X2831392Y727660D1*
X3320304Y727571D1*
X3325417Y726761D1*
X3330340Y725161D1*
X3334952Y722811D1*
X3339140Y719768D1*
X3386512Y672540D1*
X3410034Y649018D1*
X2334738Y1965063D2*
X2327463Y1963370D1*
X2318700Y1962680D1*
X2309937Y1963370D1*
X2302662Y1965063D1*
X2302672Y1920208D1*
X2328864Y1894016D1*
X2332363Y1898646D1*
X2334735Y1901212D1*
X2334728Y1965016D1*
X2302662Y2072337D2*
X2309937Y2074030D1*
X2318700Y2074720D1*
X2327463Y2074030D1*
X2334738Y2072337D1*
X2334728Y2265009D1*
X2327463Y2263370D1*
X2318700Y2262680D1*
X2310022Y2263360D1*
X2302671Y2256019D1*
X2302672Y2072357D1*
X2400696Y2071722D2*
X2405622Y2073172D1*
X2414305Y2074547D1*
X2423095D1*
X2431778Y2073172D1*
X2435035Y2072253D1*
X2436342Y2077910D1*
X2438323Y2082692D1*
X2441028Y2087106D1*
X2444397Y2091049D1*
X2616095Y2262748D1*
X2609937Y2263370D1*
X2601389Y2265422D1*
X2593268Y2268786D1*
X2585772Y2273379D1*
X2579088Y2279088D1*
X2573379Y2285772D1*
X2568707Y2293439D1*
X2564021Y2285772D1*
X2558312Y2279088D1*
X2551628Y2273379D1*
X2544132Y2268786D1*
X2536011Y2265422D1*
X2527463Y2263370D1*
X2518700Y2262680D1*
X2509937Y2263370D1*
X2501389Y2265422D1*
X2493268Y2268786D1*
X2485772Y2273379D1*
X2479088Y2279088D1*
X2473379Y2285772D1*
X2468707Y2293439D1*
X2464021Y2285772D1*
X2458312Y2279088D1*
X2451628Y2273379D1*
X2444132Y2268786D1*
X2436011Y2265422D1*
X2427463Y2263370D1*
X2418700Y2262680D1*
X2410022Y2263360D1*
X2400692Y2254040D1*
X2400704Y2071752D1*
X2627378Y838360D2*
X2618700Y837680D1*
X2609937Y838370D1*
X2601389Y840422D1*
X2593268Y843786D1*
X2585772Y848379D1*
X2579088Y854088D1*
X2573379Y860772D1*
X2568707Y868439D1*
X2564021Y860772D1*
X2558312Y854088D1*
X2551628Y848379D1*
X2544132Y843786D1*
X2536011Y840422D1*
X2527463Y838370D1*
X2518700Y837680D1*
X2509937Y838370D1*
X2501389Y840422D1*
X2500696Y840678D1*
X2500704Y658381D1*
X2509997Y649056D1*
X2518700Y649720D1*
X2527463Y649030D1*
X2536011Y646978D1*
X2544132Y643614D1*
X2551628Y639021D1*
X2558312Y633312D1*
X2564021Y626628D1*
X2568693Y618961D1*
X2573379Y626628D1*
X2579088Y633312D1*
X2585772Y639021D1*
X2593268Y643614D1*
X2601389Y646978D1*
X2609937Y649030D1*
X2618700Y649720D1*
X2627378Y649040D1*
X2672276Y693784D1*
X2676464Y696827D1*
X2681076Y699177D1*
X2685999Y700777D1*
X2691112Y701586D1*
X2758004Y701688D1*
X2764069D1*
X2627404Y838344D1*
X2434738Y840063D2*
X2427463Y838370D1*
X2418700Y837680D1*
X2409937Y838370D1*
X2401389Y840422D1*
X2400696Y840678D1*
X2400704Y658352D1*
X2409997Y649056D1*
X2418700Y649720D1*
X2427463Y649030D1*
X2434738Y647337D1*
X2434728Y840002D1*
X2334738Y840063D2*
X2327463Y838370D1*
X2318700Y837680D1*
X2309937Y838370D1*
X2301389Y840422D1*
X2300696Y840678D1*
X2300704Y658361D1*
X2309996Y649056D1*
X2318700Y649720D1*
X2327463Y649030D1*
X2334738Y647337D1*
X2334728Y840002D1*
X2234738Y840063D2*
X2227463Y838370D1*
X2218700Y837680D1*
X2209937Y838370D1*
X2201389Y840422D1*
X2200696Y840678D1*
X2200704Y814167D1*
X2234711Y780185D1*
X2234728Y840002D1*
X2200696Y946722D2*
X2205622Y948172D1*
X2214305Y949547D1*
X2223095D1*
X2231778Y948172D1*
X2234738Y947337D1*
X2234728Y979161D1*
X2228074Y985827D1*
X2194688Y985834D1*
X2197109Y981830D1*
X2199090Y977048D1*
X2200298Y972014D1*
X2200704Y966854D1*
Y946723D1*
X951692Y1359569D2*
X958317Y1361249D1*
X965607Y1362134D1*
X972951Y1362058D1*
X980221Y1361022D1*
X985707Y1359573D1*
X985814Y1458788D1*
X986623Y1463901D1*
X988223Y1468824D1*
X990573Y1473436D1*
X993616Y1477624D1*
X1040844Y1524996D1*
X1066091Y1550243D1*
X1059364Y1550964D1*
X1052219Y1552660D1*
X1045357Y1555276D1*
X1038896Y1558767D1*
X1032947Y1563073D1*
X1027613Y1568121D1*
X1022985Y1573823D1*
X1019142Y1580081D1*
X1018614Y1580768D1*
X1014021Y1573272D1*
X1008312Y1566588D1*
X1001628Y1560879D1*
X994132Y1556286D1*
X986011Y1552922D1*
X977463Y1550870D1*
X968700Y1550180D1*
X959937Y1550870D1*
X951703Y1552833D1*
X951688Y1359591D1*
X2151694Y734977D2*
X2185695Y700976D1*
X2185712Y735909D1*
X2151705Y769885D1*
X2151688Y734984D1*
X521229Y432200D2*
X3636173D1*
X3660970Y435465D1*
X3681779Y444075D1*
X3699626Y457767D1*
X3713320Y475612D1*
X3721931Y496393D1*
X3725201Y521222D1*
X3725200Y2391178D1*
X3721936Y2415972D1*
X3713326Y2436779D1*
X3699633Y2454624D1*
X3681788Y2468320D1*
X3661008Y2476929D1*
X3636180Y2480198D1*
X521226Y2480200D1*
X496428Y2476936D1*
X475621Y2468325D1*
X457774Y2454633D1*
X444080Y2436787D1*
X435471Y2416006D1*
X432201Y2391177D1*
X432200Y521223D1*
X435465Y496429D1*
X444075Y475620D1*
X457768Y457774D1*
X475613Y444078D1*
X496394Y435469D1*
X521221Y432200D1*
X1818700Y2126652D2*
D15*
Y2010748D1*
X1760748Y2068700D2*
X1876652D1*
X1818700Y901652D2*
Y785748D1*
X1760748Y843700D2*
X1876652D1*
X2468700Y1812184D2*
Y1700216D1*
X2368700Y1812184D2*
Y1700216D1*
X618700Y1812184D2*
Y1700216D1*
X1418700Y1212184D2*
Y1100216D1*
Y1156200D2*
X1474684D1*
X1843700Y1712184D2*
Y1656200D1*
X1899684D1*
X2718700Y2018700D2*
X2774684D1*
X2018700Y949684D2*
Y837716D1*
X1962716Y893700D2*
X2018700D1*
X668700Y1362184D2*
Y1250216D1*
X612716Y1306200D2*
X668700D1*
X968700Y1362184D2*
Y1250216D1*
X1268700Y1362184D2*
Y1250216D1*
Y1306200D2*
X1324684D1*
X1068700Y1662184D2*
Y1550216D1*
X768700Y1662184D2*
Y1550216D1*
D17*
X1818700Y2068700D3*
D18*
Y2268700D3*
D17*
Y843700D3*
D18*
Y643700D3*
D19*
X1618700Y1831200D3*
D20*
X1718700D3*
D19*
X1618700Y1581200D3*
D20*
X1718700D3*
D19*
X1618700Y1331200D3*
D20*
X1718700D3*
D19*
X1618700Y1081200D3*
D20*
X1718700D3*
X2868700Y1156200D3*
D19*
X2768700D3*
X2668700D3*
X2568700D3*
X2468700D3*
Y1756200D3*
X2368700Y1156200D3*
X2268700D3*
X2168700D3*
X2068700D3*
Y1756200D3*
X2168700D3*
X2268700D3*
X2368700D3*
X2568700D3*
X2668700D3*
X2768700D3*
X2868700D3*
D20*
X1418700D3*
D19*
X1318700D3*
X1218700D3*
X1118700D3*
X1018700D3*
X918700D3*
X818700D3*
X718700D3*
X618700D3*
X518700D3*
D20*
X1418700Y1156200D3*
D19*
X1318700D3*
X1218700D3*
X1118700D3*
X1018700D3*
X918700D3*
X818700D3*
X718700D3*
X618700D3*
X518700D3*
D20*
X2918700Y2018700D3*
D19*
X3018700D3*
X3118700D3*
X3218700D3*
X3318700D3*
X3418700D3*
X3518700D3*
X3618700D3*
Y2318700D3*
X3518700D3*
X3418700D3*
X3318700D3*
X3218700D3*
X3118700D3*
X3018700D3*
X2918700D3*
D20*
X3618700Y893700D3*
D19*
X3518700D3*
X3418700D3*
X3318700D3*
X3218700D3*
X3118700D3*
X3018700D3*
X2918700D3*
Y593700D3*
X3018700D3*
X3118700D3*
X3218700D3*
X3318700D3*
X3418700D3*
X3518700D3*
X3618700D3*
D20*
X1843700Y1656200D3*
D22*
Y1556200D3*
Y1456200D3*
Y1356200D3*
Y1256200D3*
D20*
X2018700Y2018700D3*
D19*
X2118700D3*
X2218700D3*
X2318700D3*
X2418700D3*
X2518700D3*
X2618700D3*
X2718700D3*
Y2318700D3*
X2618700D3*
X2518700D3*
X2418700D3*
X2318700D3*
X2218700D3*
X2118700D3*
X2018700D3*
D20*
X2718700Y893700D3*
D19*
X2618700D3*
X2518700D3*
X2418700D3*
X2318700D3*
X2218700D3*
X2118700D3*
X2018700D3*
Y593700D3*
X2118700D3*
X2218700D3*
X2318700D3*
X2418700D3*
X2518700D3*
X2618700D3*
X2718700D3*
D20*
X668700Y1306200D3*
D19*
X768700D3*
X868700D3*
X968700D3*
X1068700D3*
X1168700D3*
X1268700D3*
Y1606200D3*
X1168700D3*
X1068700D3*
X968700D3*
X868700D3*
X768700D3*
X668700D3*
M02*
