M48
INCH
T01C0.0191
T02C0.035
T03C0.0354
%
T01
X+021677Y+020677
X+023677Y+018685
X+024687Y+018437
X+024687Y+018937
X+025187Y+018937
X+025177Y+018052
X+020157Y+014052
X+017677Y+009928
X+013687Y+020437
X+013687Y+020937
T02
X+016187Y+018312
X+017187Y+018312
X+017187Y+015812
X+016187Y+015812
X+016187Y+013312
X+017187Y+013312
X+017187Y+010812
X+016187Y+010812
T03
X+018187Y+020687
X+018187Y+022687
X+020187Y+023187
X+021187Y+023187
X+022187Y+023187
X+023187Y+023187
X+024187Y+023187
X+025187Y+023187
X+026187Y+023187
X+027187Y+023187
X+029187Y+023187
X+030187Y+023187
X+031187Y+023187
X+032187Y+023187
X+033187Y+023187
X+034187Y+023187
X+035187Y+023187
X+036187Y+023187
X+036187Y+020187
X+035187Y+020187
X+034187Y+020187
X+033187Y+020187
X+032187Y+020187
X+031187Y+020187
X+030187Y+020187
X+029187Y+020187
X+027187Y+020187
X+026187Y+020187
X+025187Y+020187
X+024187Y+020187
X+023187Y+020187
X+022187Y+020187
X+021187Y+020187
X+020187Y+020187
X+020687Y+017562
X+021687Y+017562
X+022687Y+017562
X+023687Y+017562
X+024687Y+017562
X+025687Y+017562
X+026687Y+017562
X+027687Y+017562
X+028687Y+017562
X+028687Y+011562
X+027687Y+011562
X+026687Y+011562
X+025687Y+011562
X+024687Y+011562
X+023687Y+011562
X+022687Y+011562
X+021687Y+011562
X+020687Y+011562
X+018437Y+012562
X+018437Y+013562
X+018437Y+014562
X+018437Y+015562
X+018437Y+016562
X+014187Y+017562
X+013187Y+017562
X+012187Y+017562
X+011187Y+017562
X+010187Y+017562
X+009187Y+017562
X+008187Y+017562
X+007187Y+017562
X+006187Y+017562
X+005187Y+017562
X+006687Y+016062
X+007687Y+016062
X+008687Y+016062
X+009687Y+016062
X+010687Y+016062
X+011687Y+016062
X+012687Y+016062
X+012687Y+013062
X+011687Y+013062
X+010687Y+013062
X+009687Y+013062
X+008687Y+013062
X+007687Y+013062
X+006687Y+013062
X+006187Y+011562
X+005187Y+011562
X+007187Y+011562
X+008187Y+011562
X+009187Y+011562
X+010187Y+011562
X+011187Y+011562
X+012187Y+011562
X+013187Y+011562
X+014187Y+011562
X+018187Y+008437
X+018187Y+006437
X+020187Y+005937
X+021187Y+005937
X+022187Y+005937
X+023187Y+005937
X+024187Y+005937
X+025187Y+005937
X+026187Y+005937
X+027187Y+005937
X+029187Y+005937
X+030187Y+005937
X+031187Y+005937
X+032187Y+005937
X+033187Y+005937
X+034187Y+005937
X+035187Y+005937
X+036187Y+005937
X+036187Y+008937
X+035187Y+008937
X+034187Y+008937
X+033187Y+008937
X+032187Y+008937
X+031187Y+008937
X+030187Y+008937
X+029187Y+008937
X+027187Y+008937
X+026187Y+008937
X+025187Y+008937
X+024187Y+008937
X+023187Y+008937
X+022187Y+008937
X+021187Y+008937
X+020187Y+008937
T00
M30
